<?xml version="1.0" encoding="UTF-8" standalone="no"?>
<!-- Created with Inkscape (http://www.inkscape.org/) -->

<svg
   width="255mm"
   height="255mm"
   viewBox="0 0 255 255"
   version="1.1"
   id="svg1"
   xml:space="preserve"
   inkscape:version="1.3.2 (091e20ef0f, 2023-11-25, custom)"
   sodipodi:docname="ring3.svg"
   xmlns:inkscape="http://www.inkscape.org/namespaces/inkscape"
   xmlns:sodipodi="http://sodipodi.sourceforge.net/DTD/sodipodi-0.dtd"
   xmlns="http://www.w3.org/2000/svg"
   xmlns:svg="http://www.w3.org/2000/svg"><sodipodi:namedview
     id="namedview1"
     pagecolor="#505050"
     bordercolor="#ffffff"
     borderopacity="1"
     inkscape:showpageshadow="0"
     inkscape:pageopacity="0"
     inkscape:pagecheckerboard="1"
     inkscape:deskcolor="#d1d1d1"
     inkscape:document-units="mm"
     inkscape:zoom="0.42062098"
     inkscape:cx="603.86907"
     inkscape:cy="616.94498"
     inkscape:current-layer="layer1"
     showgrid="false" /><defs
     id="defs1" /><g
     inkscape:label="Layer 1"
     inkscape:groupmode="layer"
     id="layer1"><path
       style="fill:#000000;stroke-width:1"
       d="m 111.53525,254.05741 c -3.34819,-1.15918 -7.05146,-4.16349 -9.92856,-8.0547 -2.165924,-2.92935 -5.330336,-8.61904 -5.321022,-9.56725 0.0044,-0.41907 4.250512,-3.09697 4.910882,-3.09697 0.15544,0 1.3402,1.91242 2.63272,4.24985 5.28314,9.55416 10.07473,12.55712 16.47784,10.32693 1.79643,-0.62571 2.03028,-0.53926 4.04775,1.49644 2.08716,2.10604 2.11181,2.18236 0.97795,3.02661 -1.61183,1.20011 -6.54737,2.59471 -9.0638,2.56108 -1.1515,-0.0155 -3.28167,-0.43929 -4.73376,-0.94199 z m 22.76571,0.1779 c -4.74806,-1.32589 -10.09893,-5.4579 -14.5756,-11.25546 l -2.49372,-3.2295 1.40536,-1.50125 c 2.80535,-2.99675 3.11519,-2.92831 6.67517,1.47397 1.80122,2.22743 4.75045,5.06532 6.55384,6.30647 2.78475,1.91655 3.73237,2.25257 6.28814,2.22982 1.65509,-0.0155 3.84536,-0.39405 4.86727,-0.84287 1.73549,-0.76225 2.01875,-0.70978 4.29545,0.79557 2.82532,1.86807 2.67602,2.29839 -1.60506,4.62644 -3.47506,1.88972 -7.76515,2.41486 -11.41085,1.39681 z m -43.856058,-3.9668 c -4.920375,-1.48476 -9.540199,-6.55901 -12.211653,-13.4129 -1.336492,-3.42888 -2.686488,-8.23299 -2.378331,-8.46355 0.49706,-0.37192 5.336765,-2.11473 5.458879,-1.9658 0.07717,0.0942 0.840696,2.28135 1.696736,4.86058 2.083501,6.27751 3.679145,8.94006 6.768584,11.29442 2.330391,1.77588 2.921492,1.95624 6.000332,1.83069 3.392497,-0.13825 3.427178,-0.12296 5.196471,2.31742 l 1.78115,2.45671 -1.62454,0.66339 c -2.249804,0.91875 -8.251799,1.15406 -10.687628,0.41904 z m 61.404628,-0.73586 c -3.41489,-1.43427 -7.85517,-4.28527 -11.45413,-7.35442 l -1.94143,-1.6556 1.7213,-2.71185 1.72129,-2.71185 3.98255,3.26161 c 5.30996,4.3487 8.9022,6.11606 12.42566,6.11329 2.6522,-0.002 6.31086,-1.54523 7.2844,-3.07244 0.43429,-0.68125 6.37579,1.11635 6.37579,1.92897 0,0.28529 -0.76759,1.39214 -1.70572,2.4597 -4.21731,4.79908 -12.08577,6.39868 -18.40971,3.74259 z m -21.39332,-5.39912 c -1.04873,-0.82557 -1.90677,-1.72967 -1.90677,-2.00911 0,-0.77561 6.14103,-9.23231 9.52362,-13.11481 3.65329,-4.19318 7.09179,-5.93061 10.74668,-5.43008 2.73696,0.37482 6.71772,2.0676 6.71772,2.85663 0,0.27554 -0.54456,1.5675 -1.21015,2.87099 -0.92285,1.80737 -1.44517,2.27178 -2.20009,1.95621 -5.75834,-2.40711 -6.14914,-2.20479 -13.00847,6.73445 -3.07032,4.00132 -5.84639,7.35649 -6.16908,7.45594 -0.3227,0.0995 -1.44474,-0.49466 -2.49346,-1.32022 z m -22.71406,-1.84632 -1.48863,-2.18879 5.13434,-4.82546 c 2.82388,-2.654 6.55249,-5.82364 8.28584,-7.04363 2.87987,-2.02697 3.48674,-2.21817 7.04035,-2.21817 3.31074,0 4.30295,0.26141 6.67459,1.75856 1.53216,0.9672 2.7823,1.89045 2.77807,2.05165 -0.004,0.16129 -0.88115,1.32463 -1.94873,2.58541 l -1.94107,2.2923 -1.83631,-1.35647 c -3.65748,-2.70172 -5.61492,-1.85223 -14.50463,6.29477 -2.90386,2.66126 -5.60049,4.83864 -5.99248,4.83864 -0.392,0 -1.3826,-0.98494 -2.20134,-2.18881 z m 45.74187,0.34081 c -4.14667,-2.26163 -4.20605,-1.25539 0.6506,-11.02299 6.0834,-12.23488 8.88978,-14.68558 15.82547,-13.81978 3.48146,0.43459 3.46616,0.40942 2.52293,4.15208 l -0.65534,2.60027 -2.3129,-0.36952 c -3.83988,-0.61347 -4.67654,0.26522 -9.64617,10.13094 -2.49474,4.95255 -4.68783,8.99663 -4.87354,8.98681 -0.1856,-0.009 -0.86569,-0.30581 -1.51105,-0.65781 z m 22.00112,0.0155 c -4.84541,-0.72657 -15.25411,-5.5007 -15.25411,-6.99657 0,-0.32872 0.517,-1.61019 1.14888,-2.84768 l 1.14885,-2.25001 5.56336,2.78778 c 8.80251,4.4109 13.61205,4.40011 17.62647,-0.0394 1.9656,-2.17379 1.99301,-2.18285 4.8188,-1.59089 1.56309,0.32745 2.92743,0.67192 3.0319,0.7655 0.41561,0.37232 -1.68445,3.62792 -3.70895,5.7498 -3.47164,3.63866 -8.75636,5.26416 -14.3752,4.4216 z M 70.905361,241.88007 c -4.916827,-1.75313 -9.063584,-6.54178 -10.697012,-12.35285 -1.208701,-4.30006 -2.239409,-12.07742 -1.672721,-12.62177 0.269684,-0.25904 1.707867,-0.64906 3.195965,-0.86671 l 2.705624,-0.39571 0.418984,4.24817 c 1.030819,10.45223 4.531881,16.0531 10.309649,16.49297 1.618572,0.12318 2.069642,0.54295 3.282135,3.05417 0.773131,1.60121 1.405676,2.99381 1.405676,3.09468 0,0.53487 -7.062217,0.0199 -8.9483,-0.65295 z m 15.354423,-4.70118 c -0.761201,-1.43361 -1.259902,-2.70504 -1.108252,-2.82537 1.247906,-0.99017 14.094809,-8.39201 16.537818,-9.52836 5.10758,-2.37578 9.1337,-1.76009 13.31818,2.03669 l 2.00556,1.81971 -1.97396,2.03483 c -2.36405,2.43697 -2.87171,2.49218 -4.72167,0.51369 -2.28773,-2.4467 -4.80798,-1.76324 -13.982854,3.79204 -4.326812,2.61986 -8.052323,4.76336 -8.278878,4.76336 -0.226578,0 -1.034744,-1.17298 -1.795944,-2.60659 z m 86.387366,-2.48817 c -2.1592,-0.76273 -2.49144,-1.0887 -2.19344,-2.15192 0.19314,-0.68918 1.14637,-4.28654 2.11827,-7.99417 2.80685,-10.70777 4.90625,-14.04696 9.89437,-15.73737 2.45457,-0.83182 6.90105,-0.8847 7.3939,-0.088 0.20001,0.32333 0.1856,1.77416 -0.0319,3.22401 l -0.39566,2.63612 h -2.61863 c -3.83982,0 -5.49633,1.90206 -7.14717,8.20662 -2.22987,8.51583 -3.61167,12.89797 -4.05187,12.84981 -0.23274,-0.0255 -1.56824,-0.45077 -2.96777,-0.94516 z M 54.545266,231.16539 c -2.834789,-0.43573 -7.759112,-3.86968 -9.696018,-6.76149 -2.332341,-3.48214 -3.13299,-7.17315 -3.122812,-14.39624 0.01109,-7.81312 0.191808,-8.3243 2.945905,-8.3243 3.859976,0 3.917075,0.0873 3.368349,5.14822 -1.152578,10.63005 1.767007,16.84681 8.576436,18.2621 1.450823,0.30155 1.810091,0.77802 2.467583,3.27252 0.423219,1.60576 0.781157,2.98551 0.795393,3.06611 0.03526,0.1994 -3.429262,0.0259 -5.334836,-0.26692 z m 137.367354,0.0532 c -3.67604,-0.68453 -11.88316,-3.44955 -12.12752,-4.08582 -0.31743,-0.82647 0.85783,-5.5191 1.38226,-5.5191 0.19624,0 2.82931,0.79136 5.85136,1.75856 9.18486,2.93963 15.14483,1.94863 17.96536,-2.98714 1.2529,-2.19254 1.42011,-2.27967 4.38274,-2.28402 3.53991,-0.004 3.76358,0.46229 1.93482,4.04388 -2.95648,5.79012 -7.55568,8.78733 -14.01944,9.13616 -2.14656,0.11587 -4.56288,0.0877 -5.36958,-0.0625 z M 67.623116,228.79444 c -0.295873,-0.5642 -0.711398,-1.83424 -0.923429,-2.82229 l -0.3855,-1.79645 7.718599,-2.84985 c 8.792968,-3.24654 11.921191,-3.87371 15.508689,-3.10922 2.66356,0.56759 5.788456,3.11438 7.282497,5.93523 0.758074,1.43129 0.730689,1.65716 -0.293345,2.41843 -3.233972,2.40416 -3.517826,2.39146 -6.052574,-0.2708 -2.188608,-2.29872 -2.552267,-2.46814 -4.593814,-2.14005 -1.219367,0.19585 -5.444909,1.54979 -9.390057,3.00855 -3.94517,1.45876 -7.434058,2.65227 -7.753081,2.65227 -0.319044,0 -0.822135,-0.46162 -1.117985,-1.02582 z m 124.581254,-4.90465 -2.34838,-0.52924 0.45664,-6.58877 c 0.25117,-3.62381 0.73634,-8.36068 1.07816,-10.52634 1.03459,-6.55451 4.3932,-9.9321 10.7407,-10.80135 2.42434,-0.33202 2.68844,-0.25239 2.68844,0.81058 0,0.64833 0.16253,1.99044 0.36106,2.98248 0.32563,1.62676 0.19624,1.83987 -1.32008,2.17257 -3.38254,0.74224 -5.0199,1.66296 -5.60091,3.14952 -0.32685,0.83627 -0.93686,5.39151 -1.35558,10.12277 -0.41872,4.73126 -0.93671,8.88584 -1.15109,9.23244 -0.43506,0.70333 -0.31495,0.70418 -3.54896,-0.0246 z M 72.550365,218.1639 c -1.785899,-3.95701 -3.580491,-4.24308 -14.769574,-2.35431 -4.008167,0.67659 -7.692412,1.07496 -8.187188,0.88525 -0.671128,-0.25731 -0.854133,-1.04867 -0.720533,-3.11605 l 0.178947,-2.77111 9.335841,-1.43425 c 9.852414,-1.51359 12.624628,-1.36626 16.032136,0.85213 1.32607,0.86331 4.831168,6.41584 4.841368,7.66933 0.0044,0.4906 -4.503763,2.5464 -5.583521,2.5464 -0.05477,0 -0.562252,-1.02483 -1.127587,-2.27739 z m 132.562925,-0.96552 c -0.3227,-0.10147 -2.10479,-0.35557 -3.9602,-0.56464 l -3.37352,-0.38012 v -2.85417 c 0,-1.56978 0.20068,-2.97809 0.44602,-3.12956 0.24531,-0.15154 2.62096,0.0111 5.27924,0.36215 5.69533,0.75127 10.91681,0.0199 13.62793,-1.90895 0.95469,-0.67921 2.33693,-2.54414 3.07166,-4.14429 1.38261,-3.01118 1.57725,-3.14961 5.37691,-3.82381 l 2.28048,-0.40466 -0.42007,2.27849 c -1.62336,8.80501 -7.78354,13.94982 -17.36388,14.50183 -2.40784,0.13869 -4.64189,0.16927 -4.96457,0.0678 z M 36.203362,215.47443 c -6.820384,-2.80153 -9.908116,-7.73981 -9.905899,-15.84277 0.0011,-3.96068 1.892514,-13.93636 2.817627,-14.86069 0.123511,-0.12341 1.491801,0.0111 3.040501,0.29975 3.220956,0.59968 3.247211,0.70414 1.597906,6.35432 -1.472443,5.04421 -1.458296,11.80975 0.02949,14.06848 1.532513,2.32675 2.899273,3.52616 5.01679,4.4025 1.502599,0.62187 1.745342,1.03185 1.745342,2.948 0,1.22414 0.16032,2.64295 0.35612,3.15291 0.492625,1.28265 -0.598641,1.16126 -4.697789,-0.5225 z m 171.237678,-5.85579 c -0.35907,-1.21467 -2.03431,-16.0331 -2.03114,-17.96633 0.009,-5.1645 2.55761,-9.27888 6.90138,-11.13924 1.41887,-0.60767 2.67747,-1.10485 2.7969,-1.10485 0.11952,0 0.46493,0.85731 0.76778,1.90511 0.30284,1.04781 0.73318,2.35021 0.95627,2.89421 0.30734,0.7494 -0.15744,1.27609 -1.91744,2.17324 -1.2777,0.65127 -2.48765,1.6126 -2.68879,2.1363 -0.58809,1.53118 -0.41845,5.92759 0.51824,13.43079 0.48102,3.85314 0.67691,7.18936 0.43535,7.41384 -0.74593,0.69308 -5.5461,0.90798 -5.73855,0.25693 z M 57.280405,206.45868 c -0.218418,-1.29146 -1.015385,-2.89035 -1.814793,-3.6407 -1.326069,-1.24469 -2.13051,-1.36832 -11.546467,-1.77451 -5.566624,-0.24011 -10.200928,-0.45819 -10.298451,-0.48457 -0.09757,-0.0264 -0.09757,-1.40989 0,-3.07446 l 0.177395,-3.0265 8.211158,0.13803 c 15.418041,0.25921 19.135857,1.94592 21.177537,9.60795 0.446724,1.67649 0.815373,3.10215 0.819187,3.16815 0.0044,0.066 -0.983077,0.28687 -2.193131,0.49082 -1.210076,0.20405 -2.637261,0.48959 -3.171552,0.63473 -0.74335,0.20183 -1.06286,-0.27681 -1.360817,-2.03894 z M 213.40346,199.7782 c -0.19447,-0.72541 -0.35736,-2.13963 -0.36178,-3.14272 l -0.009,-1.82379 5.13359,-0.30899 c 6.17138,-0.37148 11.21245,-2.11506 13.30757,-4.60279 1.49927,-1.78025 2.984,-6.00872 2.42633,-6.91023 -0.1683,-0.27216 1.13992,-1.027 2.90724,-1.67748 l 3.21328,-1.18266 v 3.235 c 0,1.77925 -0.31048,4.27039 -0.68995,5.53589 -0.93492,3.11775 -4.69863,7.24526 -8.24307,9.0398 -3.24437,1.64262 -10.20826,3.1569 -14.518,3.1569 -2.42168,0 -2.86269,-0.18366 -3.16721,-1.31893 z M 21.007597,196.01855 c -5.315189,-3.98568 -7.35667,-10.86935 -5.450497,-18.37844 0.878814,-3.46195 4.636921,-12.30037 5.230107,-12.30037 0.650307,0 5.677118,2.44415 5.677118,2.76033 0,0.19828 -0.638377,1.44907 -1.418647,2.77933 -3.257788,5.55417 -4.773071,13.27796 -3.204525,16.33434 0.361397,0.7042 1.445589,2.11329 2.409308,3.13129 1.629748,1.72156 1.723479,2.05949 1.341282,4.83603 -0.227132,1.65005 -0.714302,2.97718 -1.089226,2.96732 -0.373083,-0.009 -1.945776,-0.96822 -3.49492,-2.12983 z m 22.470922,-3.33366 c 0,-2.34081 -1.192514,-4.94774 -2.721035,-5.94839 -0.802911,-0.52563 -5.073379,-1.72907 -9.489908,-2.6743 -4.416552,-0.94522 -8.336222,-1.83406 -8.710414,-1.97519 -0.461536,-0.17414 -0.530454,-0.88166 -0.214204,-2.20042 0.883758,-3.68612 1.218591,-4.11533 2.880913,-3.69301 0.843644,0.21446 3.910001,0.90553 6.814152,1.53597 13.690815,2.97206 17.307538,5.76881 17.307538,13.38357 v 2.94977 h -2.933488 c -2.688261,0 -2.933465,-0.1152 -2.933465,-1.378 z m 176.903871,0.0592 c -5.47844,-16.62083 -6.24217,-21.36395 -4.04513,-25.12253 1.24925,-2.13715 5.66766,-5.79881 6.99728,-5.79881 0.7828,0 3.19315,3.96474 3.19315,5.25233 0,0.33525 -0.36811,0.60955 -0.81801,0.60955 -1.42816,0 -4.46225,3.30468 -4.46225,4.86021 0,0.80241 1.18805,5.35627 2.64012,10.11973 1.45208,4.76345 2.64014,8.8687 2.64014,9.12279 0,0.46074 -3.72533,1.68 -5.152,1.68621 -0.41349,0.002 -0.86048,-0.32648 -0.9933,-0.72948 z m 3.78952,-11.90235 c -0.43663,-1.55817 -0.52946,-2.86605 -0.22292,-3.14093 0.28889,-0.25906 2.1922,-0.81181 4.2296,-1.22834 6.77697,-1.38552 12.89755,-5.11114 14.25886,-8.67945 0.28474,-0.74641 0.51772,-2.64616 0.51772,-4.2217 0,-2.73061 0.12218,-2.94855 2.61041,-4.65906 l 2.61043,-1.79447 0.61314,2.20594 c 1.14442,4.11739 0.76682,7.87945 -1.18198,11.77595 -2.00939,4.01765 -4.55073,6.39604 -9.16824,8.58044 -2.84082,1.34391 -11.16784,3.83155 -12.82553,3.83155 -0.38133,0 -1.03,-1.20147 -1.44149,-2.66993 z M 10.73203,175.8722 C 9.3396371,174.58018 7.687804,172.36521 7.0612458,170.95003 3.75279,163.47721 5.4164642,157.569 14.238237,145.46249 c 1.111844,-1.52586 2.217878,-1.35205 4.786132,0.75213 l 1.653829,1.35496 -3.275527,4.34219 c -6.431734,8.52623 -7.256198,14.74636 -2.538098,19.14848 1.401796,1.3079 1.407805,1.35946 0.495752,4.24201 -0.507792,1.60489 -1.18728,2.91825 -1.509961,2.91853 -0.322681,2.9e-4 -1.72594,-1.05657 -3.118334,-2.34859 z m 23.818811,1.64838 -2.767379,-0.57674 0.351529,-2.5625 c 0.616735,-4.49557 -0.478677,-5.44891 -11.498925,-10.00762 -3.366885,-1.39276 -6.375167,-2.78561 -6.685031,-3.09522 -0.547795,-0.54732 0.333258,-3.58968 1.476789,-5.09955 0.481915,-0.63627 5.385681,1.19161 14.388796,5.36346 6.729336,3.11821 9.418351,7.32198 8.64409,13.51342 -0.218639,1.74906 -0.565246,3.14892 -0.770093,3.11082 -0.204891,-0.0381 -1.617729,-0.32885 -3.139776,-0.64607 z M 230.8549,172.81502 c -0.54147,-1.04853 -1.77607,-3.35722 -2.74356,-5.13043 -7.05853,-12.93701 -7.4708,-16.86608 -2.34427,-22.34202 1.4747,-1.5752 2.84315,-2.85838 3.04101,-2.85149 0.19779,0.007 1.11672,1.08125 2.04194,2.38747 l 1.68222,2.37496 -1.46386,1.56929 c -3.45257,3.70125 -3.2246,5.52822 1.78487,14.30432 4.02378,7.04925 4.89949,9.08726 4.05496,9.43688 -0.38501,0.1593 -1.68301,0.71001 -2.88442,1.22361 l -2.18437,0.93381 z m 2.8583,-9.96648 c -0.32186,-0.403 -1.00931,-1.56745 -1.52768,-2.58767 l -0.94248,-1.85496 3.79064,-1.77232 c 9.58313,-4.48057 13.64491,-9.6957 12.00397,-15.41242 -0.52035,-1.81275 -0.39479,-2.11676 1.76607,-4.27575 l 2.32627,-2.32423 1.26371,2.85435 c 1.03335,2.33404 1.21412,3.62659 0.99162,7.09076 -0.45868,7.14074 -4.29269,11.89209 -13.45322,16.67216 -4.9292,2.5721 -5.36124,2.68396 -6.2189,1.61008 z m -206.48233,-3.43052 -2.460287,-1.12787 0.84686,-2.0251 c 1.927327,-4.60873 0.763706,-6.18061 -9.86033,-13.31984 -3.468821,-2.33102 -6.3069812,-4.63005 -6.3069812,-5.10891 0,-0.47889 0.8170132,-1.7129 1.8155682,-2.74225 l 1.815547,-1.87155 3.681095,2.72293 c 2.024606,1.49761 5.691887,4.10748 8.149491,5.79971 5.673394,3.90647 7.687356,6.78931 7.626842,10.91725 -0.04723,3.2238 -1.300414,7.5165 -2.260829,7.74433 -0.322681,0.0764 -1.693831,-0.36838 -3.046976,-0.9887 z M 4.4572022,154.68421 c -0.9065535,-1.07106 -2.2997451,-3.36343 -3.0960035,-5.09416 -1.21553078,-2.64208 -1.39946693,-3.74722 -1.14692337,-6.89083 0.44310983,-5.51533 2.57333217,-9.34071 8.49780577,-15.26004 l 5.0081189,-5.00377 2.330745,2.32872 2.330723,2.3287 -2.830466,2.56374 c -1.556772,1.41006 -3.701962,3.48697 -4.767084,4.61539 -4.304239,4.5599 -5.4078781,9.97936 -2.9246624,14.36157 l 1.3286864,2.34474 -1.5413162,2.82668 -1.5413384,2.82667 z M 236.34722,150.23286 c -1.45982,-1.84685 -3.35189,-4.14925 -4.20459,-5.11645 -2.85193,-3.23489 -5.57334,-7.74129 -6.28864,-10.4134 -0.60824,-2.27216 -0.56003,-3.03502 0.34075,-5.39163 0.57709,-1.50976 1.61412,-3.37644 2.30452,-4.14817 l 1.25526,-1.40317 2.25347,1.93009 2.25349,1.93006 -1.22458,2.00696 c -0.6735,1.10383 -1.22555,2.47384 -1.22675,3.04444 -0.002,1.51913 2.54415,5.32032 7.42457,11.079 2.36893,2.79522 4.30714,5.4494 4.30714,5.89817 0,0.70595 -1.69095,2.2528 -3.88361,3.55261 -0.3779,0.22404 -1.7839,-1.03654 -3.31103,-2.96851 z m 1.29137,-9.64572 -1.95208,-2.42698 1.67873,-1.21138 c 10.00001,-7.21599 13.238,-12.97374 10.51022,-18.68902 -0.92017,-1.92794 -0.90156,-2.05163 0.66465,-4.41629 0.88625,-1.33803 1.82229,-2.43278 2.08013,-2.43278 0.25783,0 0.96869,0.7254 1.57968,1.61201 3.27211,4.74809 3.69946,10.70238 1.16074,16.17316 -1.68079,3.62202 -6.51668,8.83212 -11.16103,12.02476 l -2.60899,1.79347 z M 23.824204,139.79035 c -0.645384,-0.50004 -1.569433,-1.13715 -2.053455,-1.4158 -0.771844,-0.44432 -0.753816,-0.72077 0.146573,-2.24849 2.32376,-3.94239 1.572914,-5.41349 -7.323032,-14.34799 -2.829334,-2.84159 -5.144269,-5.39427 -5.144269,-5.67263 0,-0.27835 0.965094,-1.30092 2.144636,-2.27236 l 2.144635,-1.76624 5.571946,5.51309 c 3.064582,3.03221 5.836464,5.34976 6.159766,5.15012 0.344877,-0.21291 0.403706,-0.0654 0.142359,0.35719 -0.259684,0.41979 0.05787,1.25546 0.761378,2.00368 3.1541,3.35446 3.838755,8.62737 1.655824,12.75251 -1.515372,2.86365 -2.4594,3.30057 -4.206472,1.94692 z M 240.0157,131.18394 c -0.80342,-0.7312 -3.44084,-2.93723 -5.86097,-4.90227 -10.49906,-8.52486 -12.19897,-12.31384 -8.88388,-19.80161 l 1.17464,-2.65316 2.71707,1.51727 c 2.02265,1.12951 2.61759,1.76152 2.32786,2.47297 -1.246,3.05968 -1.52863,4.34348 -1.22356,5.55789 0.37067,1.47564 4.17825,5.1838 10.80906,10.52683 2.32432,1.87292 4.22603,3.78776 4.22603,4.25519 0,0.74851 -2.97291,4.35635 -3.58967,4.35635 -0.12972,0 -0.89318,-0.59825 -1.69658,-1.32946 z M 1.5636283,128.96866 c -2.9170566,-6.26127 -1.71203648,-13.05271 3.2750834,-18.45839 2.4089316,-2.61111 10.6741063,-8.48602 11.9179763,-8.47131 0.649819,0.007 3.253973,3.70371 3.253973,4.61832 0,0.29628 -1.254047,1.26186 -2.786804,2.14571 -8.580982,4.94825 -12.620282,11.19734 -10.5058921,16.25337 0.7795832,1.86419 0.7353898,2.00373 -1.430378,4.51616 l -2.2347965,2.59254 z m 20.9272767,-9.40552 -1.919965,-2.16927 1.47996,-1.7573 c 2.647283,-3.14338 1.997176,-5.21732 -4.632175,-14.77723 -2.123903,-3.062833 -3.861684,-5.895205 -3.861684,-6.294174 -2.2e-5,-0.660332 4.630823,-4.007654 4.934478,-3.566768 4.052693,5.884278 9.486227,14.583252 10.404577,16.657522 1.640724,3.70588 1.281788,7.46575 -1.017868,10.66219 -2.604332,3.61997 -3.169667,3.75061 -5.387323,1.24503 z m 215.049165,0.41749 -2.18828,-1.93261 3.80162,-4.21726 c 7.50878,-8.32978 8.85964,-14.868431 4.06209,-19.661837 -0.86276,-0.861988 -0.8567,-1.1586 0.0734,-3.591782 0.55757,-1.458712 1.25502,-2.801177 1.5499,-2.98327 0.85377,-0.527202 5.15939,4.383338 6.43736,7.341839 1.66685,3.858661 1.31722,9.7752 -0.83743,14.17218 -1.46409,2.98777 -9.4337,12.88701 -10.32888,12.82974 -0.20977,-0.0133 -1.36618,-0.89406 -2.56974,-1.957 z m 1.60158,-10.08539 c -0.64536,-0.4906 -4.07755,-2.47428 -7.62704,-4.4082 -7.4304,-4.04835 -8.46217,-4.81808 -10.5205,-7.848566 -1.67915,-2.472218 -2.03767,-6.806328 -0.84562,-10.222885 0.53846,-1.543256 0.89232,-1.828835 1.90677,-1.538825 0.68508,0.195851 1.99398,0.519116 2.90867,0.718312 1.56372,0.340523 1.63663,0.488564 1.22021,2.477181 -1.09882,5.247431 -0.46599,6.018871 9.43734,11.504443 3.87219,2.14486 7.38336,4.22941 7.80264,4.6323 0.6221,0.59785 0.46808,1.18153 -0.83759,3.17402 -1.79409,2.73786 -1.81848,2.74856 -3.44488,1.51222 z M 3.2631805,106.05483 C 1.5553351,100.91749 2.9616982,94.532443 6.7176544,90.371077 8.8351709,88.025031 14.523599,84.627638 19.536685,82.714968 c 2.612558,-0.996757 4.831722,-1.730732 4.931484,-1.631057 0.692571,0.69197 2.445275,5.484357 2.114168,5.780748 -0.226245,0.202497 -1.863443,0.832521 -3.638188,1.399957 -10.06868,3.2192 -14.5637295,7.749426 -13.915507,14.024474 0.3003736,2.9079 0.2409907,3.05738 -1.9416518,4.88823 -1.238326,1.03874 -2.3800384,1.88861 -2.5371658,1.88861 -0.157216,0 -0.7360994,-1.35498 -1.2866439,-3.0111 z M 26.019131,100.6848 24.307982,98.151564 26.934089,95.73409 c 2.454167,-2.259175 2.602447,-2.565336 2.264643,-4.676029 -0.198904,-1.242213 -1.669905,-5.298653 -3.269097,-9.014303 -4.21696,-9.797884 -4.195806,-9.580742 -1.019953,-10.469161 2.642516,-0.739226 3.90142,-0.516125 3.90142,0.691371 0,0.355722 1.292077,3.57151 2.871289,7.146188 3.661028,8.287063 4.58337,12.234943 3.58681,15.352406 -0.746166,2.334126 -3.170975,5.308448 -5.971793,7.325108 l -1.567127,1.12838 z M 233.9641,98.730742 c -2.03762,-1.047802 -2.67041,-1.65155 -2.25846,-2.154825 0.82023,-1.002052 4.09689,-6.783265 5.21368,-9.198878 0.52169,-1.128402 1.06778,-3.553652 1.21356,-5.389422 0.2768,-3.486168 -0.69927,-5.951696 -3.27999,-8.28518 -0.9868,-0.892251 -1.02807,-1.276753 -0.4016,-3.741904 0.38402,-1.511087 0.98922,-2.844358 1.3449,-2.962821 0.98991,-0.329667 5.93709,4.504017 7.25855,7.09204 1.52417,2.985043 1.99833,7.799253 1.11756,11.347189 -0.74342,2.99468 -4.69016,11.340255 -6.37199,13.4739 l -1.00543,1.275559 z m -6.84972,-12.190721 c -10.96665,-3.739623 -13.74687,-5.441354 -15.21501,-9.312866 -0.62021,-1.635466 -0.87841,-7.57409 -0.35217,-8.099874 0.15056,-0.150433 1.53657,-0.1285 3.08017,0.04874 2.55291,0.293089 2.79738,0.454644 2.70534,1.787693 -0.16432,2.378569 0.93724,5.112041 2.46224,6.110371 0.78193,0.511915 4.79479,2.013586 8.91747,3.337042 4.12265,1.323456 7.72345,2.617733 8.00176,2.876195 0.58882,0.546787 -0.89857,5.415764 -1.71607,5.617575 -0.30252,0.07466 -3.8502,-0.989557 -7.88373,-2.364988 z M 9.1767887,83.418968 C 8.1620244,76.047131 12.186024,69.277425 19.501317,66.049718 c 3.438885,-1.517334 10.939644,-3.29251 13.912003,-3.29251 1.594313,0 1.747648,0.196072 2.126453,2.719979 0.460561,3.068545 -0.03237,3.698857 -2.915128,3.727769 -2.664934,0.02681 -8.844124,1.607772 -11.425062,2.923319 -3.402874,1.734521 -5.44757,4.741164 -5.756658,8.464946 -0.248686,2.996341 -0.34102,3.137536 -2.847252,4.354115 -1.424635,0.691527 -2.6903907,1.257323 -2.8128152,1.257323 -0.1224024,0 -0.3951689,-1.253556 -0.6060691,-2.785691 z M 33.467359,81.44207 c -1.21644,-2.382357 -1.230831,-2.559487 -0.254096,-3.131155 2.878739,-1.684894 4.39828,-3.419127 4.39828,-5.019698 0,-0.919436 -0.820539,-5.536488 -1.823418,-10.260106 -1.005894,-4.737775 -1.59775,-8.803343 -1.32006,-9.067808 0.276846,-0.263645 1.664428,-0.569097 3.083497,-0.678769 l 2.580162,-0.199396 1.721726,7.620421 c 2.189073,9.68877 2.37556,15.061577 0.621192,17.897737 -1.455302,2.35267 -4.074158,4.450268 -6.231632,4.991295 -1.305337,0.32732 -1.64323,0.06536 -2.775651,-2.152521 z M 226.71646,78.986069 c -1.02556,-0.382197 -2.02984,-0.863007 -2.23174,-1.068451 -0.20178,-0.205377 0.31056,-2.039729 1.13875,-4.076158 1.92781,-4.740256 2.94646,-10.277098 2.41321,-13.117091 -0.29902,-1.59253 -1.25128,-3.037705 -3.34276,-5.073115 -2.79408,-2.719143 -2.91664,-2.970765 -2.74554,-5.637089 0.21154,-3.296253 0.79291,-3.379678 5.07196,-0.727786 6.00004,3.718473 8.53404,10.579237 6.89209,18.660302 -1.15714,5.694985 -3.39025,11.481537 -4.48595,11.624216 -0.46496,0.06048 -1.68446,-0.202719 -2.71002,-0.584828 z M 216.08034,68.580117 c -11.14741,-1.52006 -13.72052,-2.505341 -15.94831,-6.106849 -1.2774,-2.065097 -2.52486,-7.395653 -1.87056,-7.993242 0.21908,-0.20006 1.65223,-0.524677 3.18496,-0.721502 2.6544,-0.340878 2.78681,-0.290586 2.78681,1.058215 0,2.254036 0.99931,4.282355 2.63854,5.355503 1.27416,0.834116 14.86309,3.061943 19.21588,3.150297 1.10799,0.0226 1.3057,1.411544 0.66005,4.63708 -0.42819,2.139051 0.20067,2.102473 -10.66737,0.620498 z M 43.562094,64.662323 c -0.328978,-1.531425 -0.416368,-2.850782 -0.194247,-2.931914 2.309435,-0.843333 4.630867,-2.469893 5.227379,-3.6627 0.494865,-0.989535 0.7357,-4.568976 0.741532,-11.021625 l 0.0089,-9.556163 3.080148,0.177174 3.080172,0.177174 v 10.551356 c 0,9.788686 -0.09446,10.727862 -1.306801,12.993263 -1.424945,2.662775 -3.458975,4.332913 -6.554491,5.381934 -3.098842,1.050173 -3.441923,0.872954 -4.082407,-2.108521 z M 20.597372,62.493319 c 0,-4.64242 1.220653,-7.488417 4.708499,-10.977895 4.316967,-4.319026 7.65405,-5.412433 16.611774,-5.4429 l 6.359512,-0.02171 0.244383,3.07748 0.244384,3.077478 h -5.610729 c -7.012036,0 -10.283882,0.804563 -12.801224,3.147853 -2.356423,2.19353 -3.302957,3.877671 -3.302957,5.876901 0,1.236098 -0.394681,1.587588 -2.383475,2.122656 -1.310903,0.352686 -2.76299,0.786749 -3.226832,0.964587 -0.638777,0.244903 -0.843335,-0.197623 -0.843335,-1.824537 z m 194.783088,-1.2943 c -0.48403,-0.161289 -1.17019,-0.380691 -1.5248,-0.487522 -0.45923,-0.13847 -0.42056,-1.263438 0.13438,-3.910328 2.28894,-10.916126 -0.2704,-18.321537 -6.78165,-19.622656 -1.84513,-0.368707 -1.92041,-0.504918 -2.62857,-4.756456 -0.2833,-1.700781 -0.16874,-1.905106 1.06736,-1.905106 2.72922,0 7.49016,1.995107 9.97424,4.17977 3.63214,3.194355 5.248,7.19309 5.4172,13.405824 0.0747,2.740421 -0.20201,6.760919 -0.61497,8.934443 -0.41286,2.173524 -0.61644,4.08595 -0.4524,4.249854 0.37748,0.377124 -3.41318,0.304632 -4.59088,-0.08773 z m -22.29444,-8.37096 c -4.52377,-0.892537 -7.16994,-3.143786 -8.79445,-7.481894 -0.64867,-1.732206 -1.17939,-3.240145 -1.17939,-3.350978 0,-0.235991 4.92359,-1.513066 5.8334,-1.513066 0.34115,0 0.62026,0.383263 0.62026,0.851697 0,1.827812 1.42881,3.825307 3.40716,4.763289 1.87592,0.889409 2.92391,0.913314 11.11542,0.253545 5.90516,-0.475617 9.24375,-0.529106 9.61907,-0.154111 0.31616,0.315889 0.49189,1.731264 0.39053,3.145277 l -0.18426,2.570935 -5.57364,0.39853 c -3.06546,0.21918 -7.28968,0.516293 -9.38713,0.660224 -2.09744,0.143941 -4.73757,0.07938 -5.86695,-0.143454 z M 56.385825,49.936622 v -2.855413 l 2.829779,-0.375057 c 4.988716,-0.6612 5.759629,-2.036052 7.741572,-13.806281 0.675075,-4.009037 1.343676,-7.477133 1.485791,-7.706883 0.359713,-0.581529 5.839835,0.878593 5.825155,1.552056 -0.04701,2.155599 -2.377377,14.693796 -3.265681,17.570121 -1.724676,5.584469 -5.70466,8.476872 -11.664302,8.476872 H 56.385825 Z M 34.091367,44.527045 c 0,-0.597708 0.571876,-2.47774 1.270811,-4.177847 1.58072,-3.844928 5.977138,-7.741705 10.121788,-8.971463 4.588559,-1.361478 12.300107,-0.94473 18.452555,0.997218 1.94755,0.614717 1.971631,0.663941 1.610899,3.293452 -0.201343,1.468175 -0.488523,2.791625 -0.638022,2.940996 -0.149455,0.14937 -2.48142,-0.191708 -5.182055,-0.757958 -6.331439,-1.327537 -12.607265,-1.053512 -14.910004,0.651027 -0.897706,0.664493 -2.160202,2.009404 -2.805564,2.988691 -0.645362,0.979288 -1.437407,2.180164 -1.760088,2.668617 -0.330886,0.500873 -1.801776,1.011466 -3.373516,1.171051 -2.42432,0.246154 -2.786804,0.141593 -2.786804,-0.803784 z M 198.36185,42.417859 c -0.0133,-10.228202 -3.08767,-17.050537 -8.15796,-18.103517 -2.52925,-0.525266 -3.09317,-1.049628 -4.22512,-3.928896 l -1.0869,-2.764597 h 2.60832 c 5.39883,0 10.83128,3.223201 13.95283,8.278523 1.57103,2.544282 2.72321,8.0986 2.90342,13.996562 l 0.17008,5.568772 -3.08015,0.177174 -3.08015,0.177174 z M 73.157764,41.150921 c -0.171407,-0.276965 -0.114641,-1.66183 0.125729,-3.077478 l 0.437256,-2.573908 3.078707,-0.177595 c 2.836076,-0.163615 3.195145,-0.353425 4.556428,-2.408676 0.812756,-1.227088 2.370415,-4.708249 3.461459,-7.735913 2.78645,-7.732371 3.762254,-9.901241 4.454692,-9.901241 0.331196,0 1.642763,0.530397 2.914551,1.178659 l 2.312384,1.17866 -1.229966,3.071192 c -0.676473,1.689157 -1.993629,5.161779 -2.926991,7.716938 -2.779176,7.608209 -5.363685,11.264023 -8.913153,12.607709 -1.975557,0.747869 -7.830492,0.83399 -8.271118,0.121653 z m 99.339496,-0.853218 c -1.81941,-0.954683 -3.15295,-2.296902 -4.49962,-4.528902 l -1.91387,-3.172111 2.77459,-1.408857 c 2.60519,-1.322849 2.81157,-1.34575 3.38061,-0.375154 0.33332,0.568535 1.22353,1.789714 1.97824,2.713731 1.8463,2.260441 3.98029,2.20434 13.71155,-0.360463 5.81792,-1.533395 7.85102,-1.86415 8.18086,-1.330911 0.5038,0.814467 1.30266,5.127494 0.99483,5.371233 -0.77998,0.617644 -17.69428,4.45618 -19.62027,4.452639 -1.36639,-0.0024 -3.51552,-0.58913 -4.98692,-1.361205 z M 91.880934,33.35265 c -0.968043,-0.358301 -1.85404,-0.731208 -1.968904,-0.828684 -0.114863,-0.09748 0.250349,-1.378456 0.811537,-2.846624 l 1.02033,-2.669397 3.158602,0.370909 c 4.042094,0.474658 4.349341,0.198311 10.033801,-9.025144 2.43428,-3.949812 4.74362,-7.44488 5.13187,-7.766815 0.4946,-0.410117 1.41892,-0.06928 3.0878,1.138596 l 2.38188,1.723931 -3.02802,4.757841 c -9.09835,14.296004 -10.15478,15.360899 -15.504317,15.628525 -1.850471,0.09259 -4.156536,-0.124844 -5.124579,-0.483138 z m 60.863526,-0.249741 c -1.90424,-0.975366 -5.42074,-4.522336 -5.42074,-5.467714 0,-0.529331 3.76312,-3.566296 4.41904,-3.566296 0.21465,0 1.13032,0.791353 2.03461,1.758559 2.57943,2.758873 4.75905,2.43923 13.99314,-2.052094 4.30805,-2.095375 8.17359,-3.80977 8.59007,-3.80977 0.41648,0 1.18191,1.060473 1.70097,2.356607 1.072,2.676859 1.17132,3.505257 0.42023,3.505257 -0.28794,0 -4.1427,1.747103 -8.56617,3.882452 -6.60208,3.187048 -8.68884,3.926367 -11.6504,4.127642 -2.60755,0.177218 -4.13815,-0.02645 -5.52075,-0.734643 z m 28.87186,-0.710046 c -1.91664,-9.188469 -3.61131,-13.263787 -6.7749,-16.292065 -1.30173,-1.246048 -2.40645,-1.665801 -4.93568,-1.875361 -3.13312,-0.259598 -3.31706,-0.369706 -4.77784,-2.860168 -0.83559,-1.4245979 -1.39097,-2.7183437 -1.23418,-2.8749934 0.86391,-0.8631708 6.41105,-0.8887687 9.32285,-0.043025 7.31434,2.1244854 12.01403,8.7689004 14.01997,19.8213274 0.35361,1.94836 0.52032,3.664977 0.37047,3.814706 -0.1499,0.149724 -1.4848,0.63677 -2.96651,1.082313 l -2.69403,0.810081 z M 51.107623,28.727627 c -0.0022,-1.473798 3.229759,-6.136857 5.403465,-7.79338 4.32189,-3.2936 10.021981,-4.119189 16.607428,-2.405385 3.244993,0.844478 9.984795,3.51588 10.991953,4.356798 0.569548,0.475535 -1.254447,5.873751 -1.98467,5.873751 -0.303079,0 -1.796343,-0.630042 -3.318345,-1.400093 -9.222641,-4.66611 -17.801782,-4.23187 -20.627835,1.044089 -0.770647,1.438711 -1.099582,1.555327 -3.95526,1.402248 -2.353008,-0.126128 -3.115184,-0.389763 -3.116736,-1.078028 z m 60.542827,-0.313743 c -1.67676,-0.834845 -3.04867,-1.763743 -3.04867,-2.064222 0,-0.300476 0.68102,-1.574528 1.51338,-2.831226 l 1.5134,-2.284907 1.86012,1.077759 c 1.81375,1.050897 3.18188,1.377244 5.19822,1.239946 0.92642,-0.06308 4.52203,-3.55143 11.54963,-11.205044 l 2.9603,-3.2240272 2.06793,2.2950312 c 2.29316,2.544987 2.43058,2.008134 -1.7284,6.751927 -4.6196,5.269185 -9.87175,10.143769 -11.79411,10.946286 -3.02526,1.262942 -6.65265,1.010788 -10.0918,-0.701523 z m 21.29922,0.646716 c -1.89801,-0.889961 -4.40023,-2.886938 -4.40023,-3.511742 0,-0.812398 3.1092,-4.409871 3.81133,-4.409871 0.40621,0 1.09007,0.423155 1.51967,0.940346 1.11914,1.347326 3.31269,2.052229 5.03905,1.619315 0.8185,-0.205245 4.80867,-2.849423 8.86704,-5.875938 4.05837,-3.026512 7.66056,-5.410567 8.00491,-5.297897 0.78925,0.258246 3.34782,3.989711 3.13288,4.569095 -0.31319,0.844312 -13.69458,10.644896 -16.00083,11.719069 -2.78057,1.295108 -7.49049,1.412043 -9.97382,0.247623 z m 28.43077,-9.240534 C 157.80962,11.17649 152.18642,6.8592475 146.39637,8.315935 c -2.42988,0.6113207 -2.51475,0.5810547 -4.52971,-1.6157388 -1.82862,-1.9936492 -1.94739,-2.3104823 -1.08499,-2.8941845 3.40405,-2.3039421 10.5637,-2.6876592 14.75579,-0.79083 3.77429,1.7077844 7.88936,6.3708149 10.52074,11.9217033 3.50825,7.400641 3.50025,7.190442 0.32512,8.550279 -1.50115,0.642918 -2.79141,1.168942 -2.8672,1.168942 -0.0758,0 -1.03685,-2.176218 -2.13568,-4.83604 z M 97.763742,18.77163 c -4.670292,-3.296002 -8.175191,-4.666881 -11.931701,-4.666881 -2.788756,0 -5.939176,1.546855 -7.402926,3.634813 -0.799673,1.140728 -0.954406,1.15393 -3.473366,0.296382 -1.450003,-0.493642 -2.789266,-0.744789 -2.976107,-0.558106 -0.18693,0.186679 -0.339711,-0.06308 -0.339711,-0.555025 0,-1.418206 4.604635,-6.266032 7.215996,-7.5970915 3.381653,-1.7236918 8.233975,-2.036136 12.477922,-0.8034606 3.265105,0.9483658 9.431661,4.2233541 12.455301,6.6148791 l 1.34769,1.065937 -1.54453,2.761048 c -0.84947,1.518575 -1.58795,2.746119 -1.64103,2.727875 -0.053,-0.01817 -1.93746,-1.332411 -4.187538,-2.92037 z m 42.513998,-2.037662 c -3.24832,-4.981401 -6.5534,-8.3294503 -9.57626,-9.7007478 -2.97153,-1.3480169 -4.48209,-1.4027178 -7.21623,-0.2613147 -2.03545,0.8497248 -2.16358,0.8231631 -4.65615,-0.9653101 -1.40969,-1.0114946 -2.40709,-2.09126 -2.21644,-2.3994815 0.1907,-0.3082192 1.70035,-1.190173 3.35491,-1.9598936 6.6465,-3.0920603 15.00529,-1.110304 20.27766,4.8075524 2.85976,3.2098766 7.08517,9.4482333 7.06597,10.4321483 -0.007,0.35302 -1.03424,1.363741 -2.28298,2.246051 l -2.27044,1.604196 z m -22.22913,-1.832225 c -2.38729,-2.344652 -5.29142,-4.735194 -6.45365,-5.3123119 -3.07203,-1.5254503 -8.63238,-1.4241971 -10.91358,0.1987311 L 98.921287,11.04035 96.143885,9.4489724 93.366482,7.8575952 94.530058,6.6097215 c 0.639974,-0.6863289 2.417824,-1.9845058 3.950803,-2.884835 2.429039,-1.426601 3.390369,-1.6357937 7.480779,-1.6278622 6.12972,0.011964 9.73454,1.775641 16.26282,7.9570657 l 4.79141,4.536817 -2.02002,2.345139 c -1.111,1.289829 -2.15202,2.318942 -2.31336,2.286921 -0.16143,-0.03201 -2.24659,-1.976572 -4.63388,-4.321224 z"
       id="path2" /></g></svg>
