<?xml version="1.0" encoding="UTF-8" standalone="no"?>
<!-- Created with Inkscape (http://www.inkscape.org/) -->

<svg
   width="255mm"
   height="255mm"
   viewBox="0 0 255 255"
   version="1.1"
   id="svg1"
   xml:space="preserve"
   inkscape:version="1.3.2 (091e20ef0f, 2023-11-25, custom)"
   sodipodi:docname="ring.svg"
   xmlns:inkscape="http://www.inkscape.org/namespaces/inkscape"
   xmlns:sodipodi="http://sodipodi.sourceforge.net/DTD/sodipodi-0.dtd"
   xmlns="http://www.w3.org/2000/svg"
   xmlns:svg="http://www.w3.org/2000/svg"><sodipodi:namedview
     id="namedview1"
     pagecolor="#505050"
     bordercolor="#ffffff"
     borderopacity="1"
     inkscape:showpageshadow="0"
     inkscape:pageopacity="0"
     inkscape:pagecheckerboard="1"
     inkscape:deskcolor="#d1d1d1"
     inkscape:document-units="mm"
     inkscape:zoom="0.42062098"
     inkscape:cx="406.54178"
     inkscape:cy="635.96447"
     inkscape:current-layer="layer1"
     showgrid="false" /><defs
     id="defs1" /><g
     inkscape:label="Layer 1"
     inkscape:groupmode="layer"
     id="layer1"><path
       style="fill:#000000;stroke-width:1"
       d="m 121.43609,254.31245 c -4.52535,-1.27335 -9.37887,-3.76954 -17.54827,-9.02526 -7.854781,-5.05331 -9.747257,-5.95282 -15.891115,-7.5533 -3.798104,-0.98939 -4.686978,-1.51355 -6.980212,-4.11615 -1.445332,-1.64029 -2.63864,-3.18829 -2.651796,-3.43999 -0.03217,-0.61516 6.797793,0.0627 11.80528,1.17159 5.370609,1.18935 9.104609,2.96183 17.213763,8.17114 12.7983,8.22159 16.38901,9.47786 23.81388,8.33171 4.12513,-0.63679 5.28647,-0.58563 9.04647,0.39845 l 4.31379,1.12903 -2.18042,1.28712 c -6.53403,3.85718 -14.97021,5.32581 -20.94137,3.64566 z m -30.101481,-4.66154 c -7.162452,-1.27959 -12.129291,-4.94976 -20.786978,-15.36024 -7.488979,-9.00513 -10.200364,-11.63466 -14.546671,-14.10741 -2.889106,-1.64373 -3.60694,-2.45398 -5.209417,-5.88015 -1.022222,-2.18555 -1.696146,-4.13625 -1.49761,-4.33489 0.687525,-0.68787 13.183959,5.91458 16.158726,8.53743 1.643352,1.44894 5.322113,5.47164 8.175026,8.93937 9.494522,11.54056 13.990482,14.95843 20.698693,15.73532 2.704178,0.31318 4.64746,1.06311 7.644112,2.95001 l 4.01814,2.53008 -2.15037,0.44708 c -3.93824,0.81883 -9.587668,1.06434 -12.503651,0.5434 z m 62.028201,-0.0268 c -1.71212,-0.26269 -7.03526,-1.45903 -11.8292,-2.65852 -10.33051,-2.58482 -13.87531,-3.0437 -18.05509,-2.33724 -2.88276,0.48722 -3.42339,0.35981 -7.31121,-1.72314 -2.30904,-1.23712 -3.99004,-2.44162 -3.73554,-2.67672 1.08794,-1.00499 9.85452,-2.4295 14.95127,-2.4295 4.42808,0 7.55905,0.51484 15.75312,2.59032 7.76486,1.96676 11.50057,2.6037 15.51866,2.64593 4.99723,0.0525 5.5273,-0.0744 9.51592,-2.27887 3.80337,-2.10205 4.67119,-2.33232 8.71626,-2.31277 l 4.49234,0.0212 -3.82413,3.63713 c -7.11601,6.76801 -14.38168,9.02699 -24.1924,7.5217 z m -1.24518,-8.8176 c -1.71212,-0.32482 -3.35409,-0.82906 -3.64883,-1.12055 -0.77884,-0.77021 8.55621,-6.06286 13.29897,-7.54004 2.22576,-0.69322 7.12865,-1.52965 10.89532,-1.8587 21.42422,-1.87168 24.0538,-2.59108 28.70972,-7.85424 1.90054,-2.14841 3.66666,-3.33515 6.84849,-4.60184 2.35813,-0.93877 4.38451,-1.61508 4.50306,-1.50287 0.68419,0.64755 -4.48824,8.64966 -7.67263,11.87011 -5.72878,5.79364 -10.22224,7.20627 -26.60553,8.36408 -10.53799,0.74471 -13.61653,1.33419 -18.29498,3.50301 -3.45455,1.60149 -3.48399,1.6042 -8.03359,0.74104 z m -89.023969,-5.60833 c -7.347167,-1.4018 -13.948177,-6.20488 -17.974461,-13.07875 -0.931566,-1.59041 -3.352104,-7.0084 -5.378973,-12.03994 -4.169488,-10.35044 -5.793744,-13.34679 -9.006843,-16.61536 -1.797086,-1.82809 -2.369101,-3.01848 -2.843669,-5.91764 -0.752105,-4.59468 -0.752103,-5.80938 4e-6,-5.80938 0.330707,0 2.939882,2.31256 5.798164,5.139 5.681785,5.61851 7.807741,9.14336 12.240836,20.29538 3.020791,7.59918 5.258571,12.14091 7.307301,14.83066 1.647126,2.16247 5.287681,4.77125 7.680419,5.50368 1.905565,0.5833 3.159222,1.66319 6.345016,5.46558 l 2.479017,2.95883 -1.770096,-0.0697 c -0.973553,-0.0384 -3.168074,-0.33641 -4.876715,-0.66239 z m 118.596969,-7.94349 c 0,-0.31773 2.31137,-2.92007 5.13638,-5.78297 5.62806,-5.70358 9.25127,-7.89862 20.28495,-12.28918 13.24046,-5.2687 16.57197,-7.57767 19.49,-13.50806 1.36729,-2.77877 3.046,-4.95415 5.32891,-6.90551 1.83303,-1.56682 3.51423,-2.66727 3.73594,-2.44542 0.74998,0.75034 -1.13142,8.78219 -2.95121,12.59907 -1.96189,4.11493 -6.03895,8.3621 -10.56576,11.00661 -1.53589,0.89725 -6.66273,3.19366 -11.39296,5.10312 -11.22874,4.53272 -13.10633,5.5283 -16.61025,8.80749 -2.28728,2.14058 -3.65536,2.88111 -6.22244,3.36821 -4.10673,0.77923 -6.23356,0.79514 -6.23356,0.0466 z M 34.519521,210.86079 c -4.624118,-2.5095 -9.300137,-6.69221 -11.301734,-10.10943 -2.338593,-3.99256 -3.88227,-11.40311 -4.625688,-22.20598 -0.701086,-10.18775 -1.666476,-15.13619 -3.750118,-19.22258 -1.188575,-2.331 -1.202232,-2.65028 -0.297461,-6.95362 0.521573,-2.48076 1.032062,-4.59423 1.134422,-4.69665 0.34948,-0.34966 5.458978,9.03167 6.702667,12.30647 1.747702,4.60195 2.283454,7.91561 3.036181,18.77902 0.992578,14.325 2.689139,19.37686 7.823008,23.29468 1.245115,0.95017 2.487876,2.304 2.761687,3.00844 0.273811,0.70448 1.082645,2.7525 1.797411,4.55114 0.714764,1.79866 1.093537,3.2628 0.841713,3.25369 -0.25182,-0.009 -2.10676,-0.91147 -4.122088,-2.00518 z m 175.187649,-5.25983 c 0,-1.37948 6.39959,-13.28321 8.37508,-15.57828 1.23813,-1.43843 5.53358,-5.34766 9.54547,-8.68718 11.99735,-9.98671 14.68769,-13.57043 15.45025,-20.58067 0.29871,-2.74587 0.99988,-4.56941 2.89714,-7.5344 1.37668,-2.15146 2.58188,-3.83286 2.67827,-3.73643 0.77842,0.77883 1.43194,10.69376 0.91257,13.84541 -1.26973,7.70492 -5.01352,12.86221 -15.78366,21.74293 -7.62871,6.29037 -12.27311,11.11944 -14.0548,14.6136 -0.95858,1.87993 -2.13689,3.00503 -4.27122,4.07827 -3.65979,1.84029 -5.7491,2.5078 -5.7491,1.83675 z M 12.784932,177.40628 C 6.5961749,170.71825 4.2749029,163.57889 5.4936632,154.9811 c 0.3458342,-2.4397 1.5877009,-8.27967 2.7597019,-12.97771 2.5597449,-10.26089 2.9971499,-13.67956 2.3282409,-18.19697 -0.47469,-3.20576 -0.364236,-3.69602 1.718222,-7.62648 1.224038,-2.31026 2.37815,-4.20234 2.564694,-4.20462 0.802822,-0.009 2.468015,10.74715 2.46537,15.9261 -0.0023,4.54621 -0.505216,7.6546 -2.569845,15.8842 -3.166232,12.62062 -3.486173,18.6242 -1.22579,23.00155 0.796108,1.54169 1.81213,3.22356 2.257826,3.73745 0.824549,0.95072 1.57456,10.59364 0.823746,10.59091 -0.219944,-8e-4 -1.943837,-1.66995 -3.830897,-3.70925 z m 217.230938,-4.4789 c 0.53146,-5.98504 2.24658,-12.70778 4.25243,-16.66816 0.88372,-1.74485 3.59936,-6.3009 6.03471,-10.12449 2.43537,-3.82361 5.15105,-8.51959 6.03484,-10.43552 1.65089,-3.57888 1.70033,-4.16611 1.31584,-15.63024 -0.077,-2.29691 0.26627,-5.26185 0.79334,-6.85202 l 0.92914,-2.80308 2.28504,4.71902 c 5.73522,11.84433 4.41036,19.17236 -6.54301,36.19009 -4.84773,7.5317 -7.00326,12.2002 -7.7153,16.71002 -0.51307,3.24957 -0.72096,3.55243 -4.76262,6.93804 l -3.03137,2.53927 z M 3.3894858,139.95487 c -5.7613146,-11.89823 -4.5526695,-18.59012 6.5275192,-36.14086 5.299425,-8.394178 7.01652,-12.151387 7.730559,-16.91539 0.39139,-2.6113 0.873645,-3.330587 4.11915,-6.143673 l 3.675863,-3.186078 -0.407351,4.587218 c -0.531837,5.989041 -2.246513,12.711143 -4.25282,16.672447 -0.883735,1.744846 -3.599364,6.300896 -6.03473,10.124496 -2.435362,3.82359 -5.1510377,8.51959 -6.0348317,10.43551 -1.6508838,3.57888 -1.7003199,4.16611 -1.3158385,15.63025 0.077041,2.2969 -0.2662573,5.26185 -0.7933481,6.85201 l -0.929138,2.80308 z M 238.78248,137.9776 c -1.79709,-8.6752 -1.44488,-14.90457 1.50816,-26.67547 1.84655,-7.36033 2.58678,-11.63045 2.63756,-15.215183 0.0649,-4.588914 -0.0974,-5.279031 -2.05204,-8.72074 -1.7371,-3.058617 -2.18788,-4.614339 -2.4819,-8.565426 -0.19767,-2.655395 -0.17272,-4.827781 0.0556,-4.827546 0.97139,10e-4 7.52369,7.981724 8.95317,10.904969 3.38641,6.925088 3.26522,12.676345 -0.59486,28.235126 -2.50767,10.10753 -3.03519,14.28356 -2.33431,18.47945 0.47918,2.86858 0.34573,3.44661 -1.68941,7.3192 -1.21533,2.31255 -2.37338,4.20462 -2.57349,4.20462 -0.20001,0 -0.84282,-2.31253 -1.42832,-5.139 z m -1.16458,-33.04793 c -4.72743,-7.599156 -6.53906,-12.965744 -7.36956,-21.831131 -0.35782,-3.819575 -0.92143,-9.84831 -1.25246,-13.397187 -0.75852,-8.131222 -2.7006,-12.819911 -6.74155,-16.275793 -2.09832,-1.79452 -3.24147,-3.484392 -4.50321,-6.656934 -0.93005,-2.338529 -1.59925,-4.348916 -1.48711,-4.467525 0.49122,-0.519548 8.1812,4.139241 10.96323,6.641795 6.04931,5.441666 8.13581,11.679745 9.23136,27.599568 0.70109,10.187753 1.66647,15.136192 3.75011,19.22258 1.18859,2.330996 1.20224,2.650286 0.29747,6.953627 -0.52158,2.48075 -1.01898,4.58114 -1.10534,4.66755 -0.0863,0.0864 -0.88867,-1.01905 -1.78294,-2.45655 z M 5.7049051,102.16872 C 4.9093021,96.537043 5.2862568,90.78176 6.6979745,87.006659 8.5511326,82.051109 12.829465,77.119173 21.83266,69.559858 c 8.357626,-7.01726 11.600646,-10.451553 13.632665,-14.436681 0.991152,-1.94383 2.047099,-2.808307 5.27804,-4.321018 2.221451,-1.040084 4.201435,-1.728529 4.399971,-1.529897 0.62369,0.624008 -5.811067,13.052516 -8.183099,15.80538 -1.245351,1.445282 -5.962169,5.70975 -10.481813,9.476589 -11.200195,9.334623 -13.733779,12.785609 -14.517076,19.773628 -0.287134,2.5616 -1.053516,4.689019 -2.6076149,7.238591 -1.2105329,1.9859 -2.4126181,3.74163 -2.6713031,3.9016 -0.2586851,0.15985 -0.6985725,-1.32475 -0.9775249,-3.29933 z M 221.40485,68.211761 c -5.70066,-5.630952 -7.89457,-9.256038 -12.28288,-20.295389 -5.28766,-13.30179 -7.74236,-16.846853 -13.54718,-19.564637 -2.75085,-1.287946 -4.84734,-2.88873 -7.01919,-5.359548 -3.44612,-3.920481 -3.24113,-4.263926 1.96959,-3.299863 8.49893,1.572439 14.21974,5.281315 18.59639,12.056341 1.26813,1.963065 4.04177,7.90156 6.16363,13.19667 3.97707,9.924825 5.9155,13.479092 9.34102,17.127604 1.47172,1.567519 2.13343,3.01824 2.55716,5.606185 0.72426,4.423406 0.72456,5.671634 0.001,5.671634 -0.31758,0 -2.91859,-2.312562 -5.78,-5.138997 z M 19.194774,67.937084 c 0,-0.989725 0.430364,-3.452609 0.956363,-5.473119 2.929555,-11.253099 7.987527,-16.024471 23.481313,-22.150768 11.035706,-4.36356 13.794732,-5.811269 17.265859,-9.059783 2.293067,-2.145994 3.659652,-2.886235 6.2282,-3.3736 4.106727,-0.779226 6.233552,-0.795141 6.233552,-0.04661 0,0.317736 -2.311365,2.920065 -5.136363,5.782969 -5.628067,5.703582 -9.251277,7.898617 -20.284954,12.289181 -13.227208,5.263421 -16.57312,7.579985 -19.479542,13.486791 -1.39335,2.831755 -3.071238,4.976432 -5.625037,7.189971 l -3.639391,3.154485 z M 198.80747,42.265714 C 191.6438,38.749068 188.40512,36.095156 182.55447,28.947303 172.29357,16.411296 167.4916,12.66932 160.71916,11.931881 157.95684,11.631073 156.15115,10.930667 153.1034,8.9777254 l -3.99495,-2.5599046 2.12719,-0.5169579 c 1.16994,-0.2843292 4.64867,-0.5388293 7.73048,-0.5655742 10.02506,-0.087109 15.3509,3.1348253 25.65652,15.5205323 7.59492,9.127893 10.20332,11.674072 14.37427,14.031436 2.70076,1.526436 3.63094,2.523837 5.13637,5.50761 1.87191,3.710124 2.20911,4.924967 1.36703,4.924967 -0.25922,0 -3.27099,-1.374348 -6.69284,-3.05412 z M 42.230584,38.701652 c 0,-1.559772 4.705337,-8.71443 7.768388,-11.812151 5.728775,-5.793635 10.222242,-7.206265 26.605528,-8.364063 10.605968,-0.749516 13.611127,-1.331077 18.428751,-3.566346 3.126237,-1.45051 3.526113,-1.492887 7.323159,-0.776049 2.20899,0.417017 4.16199,0.993987 4.33999,1.282154 0.50625,0.819533 -8.919967,6.076762 -13.413474,7.48101 -2.225759,0.695555 -7.268734,1.532558 -11.206611,1.860017 -16.352431,1.359729 -18.838714,1.76488 -22.84506,3.72279 -2.386016,1.166062 -4.616715,2.84534 -5.851275,4.404902 -1.097356,1.386236 -2.58402,2.749425 -3.3037,3.029305 -0.719676,0.279879 -2.779373,1.093974 -4.577099,1.809094 -1.797729,0.715143 -3.268597,1.133338 -3.268597,0.929337 z M 172.66309,24.971686 C 161.92414,23.658525 158.51352,22.396618 148.26373,15.944133 134.16517,7.0687386 131.37713,6.0740925 123.85308,7.2355646 119.72795,7.8723565 118.56661,7.8211975 114.8066,6.8371223 l -4.31378,-1.1290297 2.18042,-1.2871447 c 1.19923,-0.7079155 3.80132,-1.8938957 5.78242,-2.6355014 9.78325,-3.6622599 17.43884,-1.90072314 31.47403,7.2421195 7.63616,4.974384 11.60885,6.921769 16.8507,8.260097 4.13336,1.055316 4.92378,1.509131 7.27072,4.174367 3.60732,4.096559 3.59829,4.119372 -1.38802,3.509656 z m -49.18457,-7.758184 c -2.05455,-0.244919 -7.79794,-1.497526 -12.76309,-2.78354 -6.8167,-1.765609 -10.32356,-2.348582 -14.319558,-2.38046 -4.915562,-0.03931 -5.557738,0.109005 -9.027547,2.083394 -3.058733,1.740514 -4.60982,2.190774 -8.561039,2.485109 -2.654027,0.197761 -4.825309,0.179397 -4.825069,-0.04073 2.37e-4,-0.220127 1.668092,-1.944842 3.706339,-3.832876 6.321668,-5.8557645 13.658207,-8.4535734 21.451607,-7.59583 2.086097,0.2295445 8.135457,1.4846942 13.443037,2.789143 11.96702,2.941114 14.37163,3.270198 18.67769,2.55602 3.25524,-0.5399123 3.63143,-0.456735 7.6225,1.685116 2.30905,1.239164 3.99003,2.447793 3.73554,2.685837 -0.6092,0.569788 -9.0423,2.291184 -12.60322,2.572617 -1.54091,0.121717 -4.48264,0.02119 -6.53719,-0.223894 z"
       id="path1" /></g></svg>
