<?xml version="1.0" encoding="UTF-8" standalone="no"?>
<!-- Created with Inkscape (http://www.inkscape.org/) -->

<svg
   width="255mm"
   height="255mm"
   viewBox="0 0 255 255"
   version="1.1"
   id="svg1"
   xml:space="preserve"
   inkscape:version="1.3.2 (091e20ef0f, 2023-11-25, custom)"
   sodipodi:docname="ring2.svg"
   xmlns:inkscape="http://www.inkscape.org/namespaces/inkscape"
   xmlns:sodipodi="http://sodipodi.sourceforge.net/DTD/sodipodi-0.dtd"
   xmlns="http://www.w3.org/2000/svg"
   xmlns:svg="http://www.w3.org/2000/svg"><sodipodi:namedview
     id="namedview1"
     pagecolor="#505050"
     bordercolor="#ffffff"
     borderopacity="1"
     inkscape:showpageshadow="0"
     inkscape:pageopacity="0"
     inkscape:pagecheckerboard="1"
     inkscape:deskcolor="#d1d1d1"
     inkscape:document-units="mm"
     inkscape:zoom="0.42062098"
     inkscape:cx="794.06405"
     inkscape:cy="616.94498"
     inkscape:current-layer="layer1"
     showgrid="false" /><defs
     id="defs1" /><g
     inkscape:label="Layer 1"
     inkscape:groupmode="layer"
     id="layer1"><path
       style="fill:#000000;stroke-width:0.999993"
       d="M 119.51768,254.87234 C 85.506614,252.69944 54.076822,237.22955 31.4761,211.53786 16.364894,194.35996 6.0941113,173.12994 1.9588753,150.52484 0.52127701,142.66625 -0.00135436,136.53748 2.6348323e-6,127.55333 0.0016575,115.72432 1.0884656,106.79761 3.848376,95.940161 13.433721,58.231572 40.236975,26.594602 75.951621,10.833779 106.86453,-2.808054 142.15878,-3.5982781 173.81107,8.6427284 c 4.58311,1.7724396 13.42207,5.9791946 16.06111,7.6440256 0.49328,0.311184 0.95983,0.565778 1.03678,0.565778 0.39363,0 7.34278,4.435187 10.59611,6.762804 9.81326,7.020965 18.83691,15.624481 26.29335,25.069149 15.60473,19.765672 24.68792,42.924518 26.94332,68.695755 0.34542,3.9469 0.34409,16.63754 -0.002,20.45558 -2.13785,23.57489 -9.75406,44.53616 -23.01285,63.33574 -7.96089,11.28771 -18.94837,22.31337 -30.11222,30.21685 -18.75673,13.27889 -39.42348,20.95866 -62.3936,23.18551 -4.02536,0.39024 -15.53696,0.56459 -19.70325,0.29842 z m 17.73292,-2.8407 c 24.68444,-1.98009 47.80503,-10.9481 67.0739,-26.0166 24.5688,-19.21311 41.17153,-46.94133 46.31446,-77.3498 2.01226,-11.8978 2.31267,-24.53798 0.86572,-36.42624 -2.74871,-22.583604 -11.7412,-44.073585 -25.99935,-62.132469 -4.47859,-5.672422 -10.35064,-11.859572 -15.35977,-16.183989 -1.32062,-1.140105 -2.45039,-2.131669 -2.5106,-2.203476 -0.30562,-0.364519 -5.69327,-4.504419 -7.99075,-6.140135 C 183.30346,13.944964 163.63924,6.2604633 143.74512,3.7343559 137.67076,2.9630506 134.32255,2.7634771 127.50844,2.7665448 116.06443,2.771506 107.039,3.8819358 96.434999,6.5889543 74.546347,12.17675 54.88275,23.465772 38.78013,39.689068 25.605663,52.962273 15.896145,68.461979 9.5862994,86.292421 6.0493885,96.28705 3.9071568,106.48323 2.9168025,118.03657 c -0.3396115,3.96194 -0.3407699,15.34797 -0.00165,19.14292 0.5796084,6.49171 1.6260792,13.28167 2.8682875,18.61068 4.1730826,17.90235 12.454477,35.06687 23.742389,49.20997 1.200448,1.50409 2.236526,2.78393 2.302398,2.84409 0.06586,0.0602 0.709449,0.79854 1.430168,1.64083 5.722658,6.688 14.452545,14.64591 21.457806,19.56031 14.197869,9.96025 28.415835,16.39594 44.44176,20.11637 7.607459,1.76607 14.189289,2.65576 23.534429,3.18122 2.21348,0.12447 11.63836,-0.0771 14.5585,-0.31132 z m -17.95184,-2.26961 c -1.94849,-0.61582 -3.38258,-1.81385 -4.87129,-4.0695 -1.48719,-2.25333 -2.45393,-3.41995 -3.39168,-4.09294 -1.25859,-0.90324 -2.95785,-1.38813 -4.30557,-1.22863 -0.96856,0.11464 -1.10143,0.0751 -1.42942,-0.42511 -0.5264,-0.80283 -0.24614,-1.6625 0.66615,-2.04342 0.9742,-0.40677 3.01854,-0.38555 4.47419,0.0465 2.09969,0.62312 3.13345,1.54487 5.24957,4.68079 2.55984,3.7935 4.79384,5.09156 7.5633,4.39468 0.84403,-0.21239 1.10397,-0.20089 1.51293,0.0669 0.58132,0.38063 0.77282,0.95257 0.53452,1.59633 -0.40284,1.08824 -3.95007,1.72319 -6.0027,1.07447 z m 8.83754,-0.40825 c -1.14333,-0.59146 -1.74097,-1.14042 -3.47601,-3.19288 -3.29689,-3.90006 -4.79846,-4.77761 -7.69282,-4.49586 -1.40421,0.13669 -1.46907,0.12115 -1.83719,-0.4403 -0.87281,-1.33118 0.6063,-2.37146 3.40224,-2.39286 1.35203,-0.0103 1.88167,0.0965 2.99969,0.60511 1.37832,0.62702 1.92908,1.13916 5.34213,4.96752 0.98291,1.10252 1.84105,1.8215 2.68078,2.24608 1.1262,0.56942 1.36548,0.61156 2.71389,0.47788 3.04672,-0.30205 3.17713,-0.28884 3.54343,0.35894 0.30972,0.54771 0.30072,0.637 -0.12137,1.20327 -0.67822,0.9099 -2.06185,1.35157 -4.27758,1.36548 -1.72566,0.0108 -2.02083,-0.0524 -3.27719,-0.70238 z m 11.41301,-0.14663 c -1.35926,-0.4147 -2.5167,-1.25551 -5.08596,-3.69466 -3.73346,-3.54441 -4.56107,-3.86219 -8.3138,-3.19228 -0.7685,0.13719 -0.83131,0.10352 -1.18343,-0.63437 -0.33622,-0.7046 -0.33973,-0.82824 -0.0367,-1.29053 0.46687,-0.71205 3.0295,-1.36701 4.72352,-1.20724 2.08709,0.19683 3.06106,0.78059 6.01851,3.60727 3.26618,3.12175 4.16538,3.62464 6.2643,3.50335 0.79457,-0.0459 1.92249,-0.22414 2.50649,-0.39606 1.05125,-0.30945 1.06688,-0.3067 1.56904,0.2767 0.62927,0.73107 0.50768,1.32226 -0.41514,2.01847 -1.32312,0.99823 -4.39994,1.5118 -6.04691,1.00935 z m -29.90875,-0.3102 c -2.54209,-0.6457 -3.76515,-1.79934 -5.91254,-5.57693 -0.70757,-1.24473 -1.60927,-2.64171 -2.00379,-3.10442 -0.94437,-1.10761 -2.834238,-1.99254 -4.409042,-2.06454 -1.583309,-0.0724 -1.456976,-0.0174 -1.769249,-0.77074 -0.815957,-1.96855 2.468083,-2.63256 5.747091,-1.16203 1.62575,0.72911 2.58689,1.81236 4.55095,5.12919 2.39936,4.05193 3.42915,4.83322 6.44918,4.89297 2.33783,0.0462 2.28019,0.0313 2.51764,0.65535 0.30528,0.80242 -0.063,1.54356 -0.9148,1.84116 -1.14378,0.39961 -3.03256,0.47062 -4.25544,0.15999 z m 40.0282,-1.34972 c -1.45025,-0.39832 -2.98204,-1.3835 -5.08417,-3.26991 -2.84101,-2.54946 -5.32946,-3.31311 -7.87338,-2.41616 -1.07621,0.37944 -1.68063,0.17348 -1.88558,-0.64255 -0.24205,-0.96372 -0.0112,-1.30968 1.31597,-1.97217 1.14121,-0.56965 1.5272,-0.64778 3.17442,-0.64255 2.3984,0.007 3.45941,0.50689 6.47265,3.04571 2.99836,2.52629 3.99727,3.05199 5.80152,3.05323 1.032,7.1e-4 1.69766,-0.1337 2.42255,-0.48916 1.32643,-0.65041 2.07036,-0.63412 2.52234,0.0552 0.70252,1.07144 -0.20345,2.19747 -2.37236,2.94863 -1.6986,0.58828 -3.16172,0.69562 -4.49396,0.3297 z m -50.808299,-0.7607 c -2.348784,-0.84435 -3.111669,-1.75124 -5.364181,-6.37677 -1.901002,-3.90369 -3.065183,-4.94069 -5.977225,-5.32421 -0.978903,-0.12893 -1.165572,-0.23416 -1.394307,-0.78599 -0.219825,-0.53034 -0.204219,-0.72846 0.09309,-1.1819 0.480134,-0.73229 1.162146,-0.86484 2.896668,-0.56299 3.243661,0.56447 4.710302,1.91862 6.761574,6.24294 2.107289,4.44243 3.380733,5.55374 6.53708,5.70477 1.64348,0.0786 2.11167,0.36485 2.10481,1.28666 -0.007,1.0414 -0.8075,1.43726 -2.88301,1.42703 -1.01165,-0.005 -2.033637,-0.1632 -2.774503,-0.42954 z m 59.677189,-2.04725 c -0.69422,-0.29265 -2.10433,-1.14352 -3.13359,-1.89081 -3.59498,-2.61016 -5.84147,-3.31931 -7.97345,-2.51698 -2.05444,0.77315 -2.84602,0.56555 -2.84602,-0.74642 0,-0.69575 0.36472,-1.06972 1.7514,-1.79578 0.84294,-0.44136 1.30121,-0.51611 3.17441,-0.51774 2.56685,-0.002 3.15233,0.22257 6.05476,2.32489 2.68058,1.94163 3.74189,2.4279 5.54826,2.5421 1.39089,0.0879 1.65083,0.0342 2.81352,-0.5811 1.42798,-0.75575 2.13295,-0.84486 2.64397,-0.3342 1.40064,1.3997 -1.70673,3.80668 -5.12477,3.96965 -1.36702,0.0651 -1.86037,-0.0117 -2.90849,-0.45361 z m -69.430164,-0.6823 c -2.607862,-1.07139 -3.518245,-2.22446 -5.019969,-6.35813 -1.03535,-2.84991 -1.66003,-3.97914 -2.803095,-5.06712 -0.805783,-0.76694 -2.078453,-1.37843 -2.868882,-1.37843 -1.264327,0 -1.965087,-1.45174 -1.112184,-2.30406 0.543609,-0.54324 2.924331,-0.35838 4.299817,0.33387 2.301076,1.15808 3.501358,2.77166 4.662809,6.26835 0.79858,2.40424 1.764567,4.13894 2.79621,5.02138 0.924151,0.7905 2.566514,1.40049 3.770743,1.40049 0.878428,0 1.398916,0.4896 1.398916,1.31588 0,0.93427 -0.692859,1.31045 -2.402153,1.30424 -1.002691,-0.003 -1.814833,-0.16369 -2.722212,-0.53647 z m 79.449384,-2.4943 c -1.34035,-0.48353 -2.20062,-0.92355 -3.7823,-1.93466 -3.11148,-1.98904 -5.79818,-2.44381 -7.79357,-1.31919 -1.24601,0.70226 -1.89837,0.75702 -2.4014,0.20155 -0.67343,-0.74362 -0.46174,-1.50735 0.63319,-2.28443 1.37933,-0.97892 2.81246,-1.45243 4.42836,-1.46313 1.78341,-0.0118 3.18541,0.49371 5.99779,2.16266 1.24364,0.738 2.79482,1.4983 3.44707,1.68955 1.88873,0.5538 3.87926,0.14191 5.21586,-1.07927 0.93096,-0.85059 2.46468,-0.44194 2.46468,0.6567 0,1.254 -1.9707,2.84528 -4.26246,3.44181 -1.67065,0.43485 -2.58952,0.41818 -3.94722,-0.0716 z m -88.486331,-0.87077 c -3.126369,-1.07958 -4.386144,-2.80729 -5.561332,-7.62706 -0.641006,-2.62894 -1.131545,-3.62339 -2.457831,-4.98264 -0.870823,-0.89246 -1.412411,-1.2446 -2.326658,-1.51276 -1.310008,-0.38424 -1.536592,-0.60346 -1.541582,-1.49154 -0.0074,-1.36154 1.775026,-1.58968 4.048265,-0.51808 2.576893,1.21474 3.704645,2.8505 4.72054,6.84696 0.807303,3.17586 1.496857,4.6395 2.650809,5.62657 0.938989,0.80319 2.481986,1.43955 3.490516,1.43955 0.646597,0 1.286964,0.67738 1.286964,1.36134 0,0.21388 -0.197029,0.58577 -0.437845,0.82642 -0.564565,0.56418 -2.288241,0.57809 -3.871846,0.0313 z m 97.462251,-3.3827 c -0.84286,-0.28284 -2.12357,-0.81314 -2.84603,-1.17845 -2.50144,-1.26485 -3.88576,-1.65448 -5.54531,-1.56077 -1.23953,0.07 -1.72498,0.21476 -2.65264,0.79103 -0.6245,0.38794 -1.32594,0.70535 -1.55875,0.70535 -0.56334,0 -1.29901,-0.75973 -1.29901,-1.34151 0,-0.63735 1.39461,-1.90105 2.81557,-2.55126 2.41423,-1.10472 4.75935,-0.86402 8.14229,0.83574 2.59898,1.30585 4.28211,1.80998 5.59778,1.67664 1.2281,-0.12448 2.6741,-0.77234 3.56264,-1.59621 0.78736,-0.73006 1.26703,-0.83832 1.8944,-0.42753 1.38651,0.90786 0.16448,2.87532 -2.66941,4.29771 -1.84893,0.92802 -3.41692,1.02866 -5.44153,0.34926 z M 120.61231,236.6973 C 102.53449,235.63338 84.453077,229.76864 68.946021,219.93925 51.776501,209.05607 37.685511,193.25947 28.981382,175.13718 22.381885,161.3968 18.96496,147.7929 18.239045,132.36845 17.526733,117.23289 19.975297,102.23984 25.492387,87.954828 34.462752,64.7285 51.688884,44.791486 73.4856,32.408926 97.169395,18.95433 124.95902,14.883024 151.96129,20.911873 c 14.79806,3.303995 29.87559,10.394154 42.06061,19.778866 17.37235,13.379911 30.39243,31.561099 37.21565,51.967778 0.9166,2.741325 1.42438,4.530253 2.45292,8.641663 0.94245,3.76725 1.06369,4.32833 1.60733,7.4384 2.81964,16.13046 1.88122,33.70383 -2.62106,49.08409 -4.49174,15.34423 -12.14585,29.45386 -22.38817,41.27051 -2.2072,2.54647 -7.76097,8.12748 -10.42544,10.47659 -7.51892,6.62899 -15.79243,12.1278 -24.73851,16.44194 -17.02239,8.20885 -35.39659,11.81058 -54.51231,10.68559 z m 11.76849,-2.59889 c 24.21221,-1.17499 46.12039,-9.8268 64.52087,-25.48006 2.96244,-2.52015 9.20501,-8.75847 11.72686,-11.7189 12.43149,-14.59343 20.58338,-31.7746 23.94411,-50.46525 2.44997,-13.62552 2.17116,-28.81711 -0.76609,-41.74299 -1.81911,-8.00531 -3.32095,-12.560882 -6.88786,-20.893128 -0.79256,-1.851422 -3.7544,-7.591771 -4.77124,-9.247155 -0.50021,-0.814326 -0.90946,-1.527077 -0.90946,-1.58389 0,-0.09964 -1.17964,-1.979055 -2.81399,-4.483299 C 210.20765,58.958686 201.08203,49.334312 191.32506,42.013031 167.3145,23.996366 136.38605,17.007082 106.71057,22.891642 88.704443,26.462211 72.424077,34.340819 58.284384,46.326694 55.682298,48.532422 49.008738,55.122582 46.916351,57.552668 28.795987,78.597537 19.61433,104.95311 20.893657,132.24976 c 0.124247,2.65119 0.377135,6.10018 0.561959,7.66443 2.121347,17.95388 8.608395,34.78785 19.077389,49.50607 1.381085,1.94165 4.867258,6.42831 5.306062,6.82883 0.06595,0.0602 0.609189,0.70008 1.207291,1.42205 3.142035,3.79273 10.060349,10.31415 15.112993,14.24598 2.946132,2.29259 10.304616,7.30348 10.725152,7.30348 0.05716,0 0.754258,0.39778 1.549117,0.88395 1.730102,1.05823 6.998338,3.77215 9.289835,4.78565 11.406028,5.04473 23.146765,8.0459 35.137455,8.98181 2.79737,0.21835 3.94491,0.27603 7.8813,0.3962 0.72244,0.0221 3.25982,-0.0543 5.63859,-0.1698 z m -61.626599,2.17927 c -3.253325,-1.32022 -4.340671,-3.01415 -5.193208,-8.0903 -0.247187,-1.47177 -0.650312,-3.1315 -0.895845,-3.6883 -0.631248,-1.4315 -2.250004,-3.00698 -3.524069,-3.42987 -1.111937,-0.36908 -1.419659,-0.82697 -1.184627,-1.76275 0.310966,-1.23816 2.50986,-1.0403 4.624745,0.41615 2.13217,1.46835 2.831285,2.88592 3.595808,7.2911 0.590944,3.40501 1.420255,5.14673 2.930974,6.15568 0.58703,0.39205 1.464034,0.77622 1.948899,0.85369 1.483643,0.23708 2.204637,1.49841 1.346631,2.35583 -0.477601,0.47728 -2.351843,0.42529 -3.649308,-0.10123 z m 115.863969,-3.81384 c -0.66224,-0.16879 -1.89369,-0.57146 -2.73656,-0.89483 -3.23076,-1.23948 -4.69365,-1.43724 -6.53512,-0.88341 -0.56218,0.16907 -1.37567,0.61761 -1.80778,0.99674 -0.59172,0.51919 -0.95556,0.67282 -1.47405,0.6224 -0.86181,-0.0838 -1.35512,-0.93589 -1.03261,-1.78358 0.34902,-0.91735 2.29583,-2.28015 3.99334,-2.79541 1.99706,-0.60618 3.06456,-0.47794 6.67459,0.80183 4.62724,1.64037 6.37761,1.56393 8.49619,-0.37102 1.37368,-1.25462 2.27877,-1.41593 2.87159,-0.51179 0.47701,0.72753 0.1445,1.54902 -1.15104,2.84367 -1.96096,1.95964 -4.57954,2.66837 -7.29855,1.9754 z M 62.64608,231.38026 c -1.433064,-0.38517 -3.295028,-1.71737 -4.102072,-2.93495 -0.914934,-1.38035 -1.255216,-2.7163 -1.532381,-6.01612 -0.273632,-3.25772 -0.767974,-4.81702 -1.939047,-6.11635 -0.436992,-0.48485 -1.218263,-1.0695 -1.736153,-1.29923 -1.209227,-0.53639 -1.563467,-1.3184 -0.962834,-2.12554 0.228752,-0.3074 0.62832,-0.59047 0.887927,-0.62902 0.716647,-0.10641 2.723437,0.90376 3.841687,1.93383 1.744229,1.60668 2.304525,3.27229 2.725233,8.10127 0.324378,3.72331 1.425029,5.5491 3.884491,6.44367 1.755605,0.63855 2.300933,1.61706 1.401902,2.51548 -0.499703,0.49936 -0.989444,0.52455 -2.468753,0.12696 z m 119.64231,-3.74918 c -1.44078,-1.00848 0.57396,-3.65515 3.59666,-4.72476 1.61651,-0.57202 3.73454,-0.45175 6.42517,0.36484 1.02348,0.31062 2.70586,0.62194 3.73865,0.69183 2.31406,0.15659 2.95432,-0.10075 4.79253,-1.92635 0.71141,-0.70653 1.4254,-1.2846 1.58664,-1.2846 0.45347,0 1.19973,0.59716 1.31984,1.05616 0.29126,1.11302 -1.92191,3.7992 -3.84058,4.66142 -1.6477,0.74044 -4.17275,0.70194 -6.86343,-0.10468 -2.78539,-0.835 -4.12113,-1.01792 -5.54305,-0.75911 -1.47216,0.26794 -2.54298,0.80216 -3.38651,1.68946 -0.72168,0.75912 -1.11721,0.83186 -1.82592,0.33579 z M 54.116622,225.45271 c -1.192323,-0.43766 -2.657326,-1.50588 -3.522704,-2.5686 -1.208003,-1.48347 -1.463911,-2.58191 -1.561167,-6.70102 -0.04725,-1.99934 -0.187174,-3.96342 -0.311032,-4.36463 -0.450397,-1.45894 -1.355054,-2.67675 -2.561203,-3.44779 -1.362136,-0.87076 -1.608562,-1.65168 -0.804695,-2.55011 0.451117,-0.5042 0.822336,-0.48093 2.135563,0.13386 1.474419,0.69025 2.876487,2.1054 3.572689,3.60603 0.533628,1.15022 0.583051,1.522 0.7024,5.28463 0.112754,3.55441 0.188158,4.18025 0.619151,5.13846 0.55534,1.23469 1.830612,2.52926 2.914102,2.95821 1.062689,0.4207 1.495966,0.86369 1.495966,1.52948 0,1.18946 -1.057286,1.5768 -2.67907,0.98148 z m 136.442198,-3.16924 c -0.60331,-0.60292 -0.55121,-1.06661 0.25684,-2.28571 0.83082,-1.25347 1.9924,-2.13588 3.60558,-2.73904 1.52126,-0.56879 3.0534,-0.56464 6.21589,0.0168 4.47961,0.8236 6.4516,0.33489 8.26209,-2.04759 0.77142,-1.01514 1.07672,-1.25797 1.58161,-1.25797 2.97112,0 0.0617,5.2774 -3.50486,6.35757 -1.17535,0.35596 -3.64514,0.29589 -5.69597,-0.13856 -4.11347,-0.87138 -6.8448,-0.36219 -8.43051,1.57165 -0.88475,1.07898 -1.57621,1.23681 -2.29067,0.52284 z m -145.086058,-3.8391 c -1.387687,-0.69104 -2.778064,-2.17068 -3.48048,-3.70392 -0.522391,-1.14028 -0.532726,-1.27255 -0.472969,-6.05466 0.07116,-5.69706 0.07703,-5.67545 -2.063377,-7.64739 -1.159846,-1.06857 -1.31321,-1.30132 -1.187424,-1.80214 0.07943,-0.31631 0.400238,-0.74259 0.712875,-0.9473 0.54546,-0.35716 0.609503,-0.35067 1.583731,0.16024 1.536551,0.80581 2.964352,2.40695 3.558689,3.99069 0.441253,1.17582 0.496989,1.64907 0.417465,3.54474 -0.218459,5.20743 -0.139208,6.94464 0.359296,7.87595 0.54848,1.02468 1.183071,1.65158 2.628812,2.59694 1.175161,0.76843 1.366894,1.22097 0.850783,2.00812 -0.467119,0.71242 -1.448496,0.70524 -2.907401,-0.0213 z m 153.380978,-1.77525 c -0.19394,-0.0518 -0.46932,-0.35013 -0.61194,-0.66295 -0.39705,-0.87082 0.6186,-2.71636 2.16864,-3.94066 1.6624,-1.31306 3.07473,-1.70876 5.69205,-1.59477 5.04628,0.21976 6.83947,0.13259 7.80304,-0.37936 0.93652,-0.49758 2.48643,-2.11754 2.48643,-2.59882 0,-0.36375 1.05691,-1.17976 1.52807,-1.17976 0.55839,0 1.09903,0.71379 1.09903,1.45101 0,1.59407 -2.06437,4.23857 -4.09623,5.24735 -0.74143,0.36811 -1.37623,0.41187 -5.97432,0.41187 -6.27608,0 -6.32013,0.0156 -8.77662,3.11756 -0.21416,0.27044 -0.6337,0.31134 -1.31815,0.12853 z M 38.67618,211.45458 c -1.156288,-0.50215 -3.056231,-2.45693 -3.690739,-3.79728 -0.738517,-1.56003 -0.760883,-3.51235 -0.08043,-7.02287 0.749166,-3.86505 0.297074,-6.00345 -1.650612,-7.80735 -1.076432,-0.99696 -1.217716,-1.58937 -0.540454,-2.26617 0.605937,-0.60553 1.091598,-0.54974 2.211132,0.25401 1.38096,0.99143 1.941777,1.64908 2.576228,3.02103 0.785523,1.69861 0.85286,3.53154 0.247245,6.73002 -0.864477,4.56568 -0.365518,6.56643 2.089591,8.37889 0.95499,0.70502 1.194953,1.00577 1.194953,1.49768 0,0.69675 -0.593765,1.34388 -1.221324,1.3311 -0.231341,-0.005 -0.742356,-0.14828 -1.135593,-0.31906 z m 167.69819,-1.43006 c -0.2719,-0.10918 -0.60584,-0.44301 -0.74209,-0.74185 -0.20875,-0.45786 -0.15195,-0.73897 0.36105,-1.78681 0.7643,-1.5611 2.05804,-2.83692 3.61196,-3.56191 1.11317,-0.51936 1.50988,-0.57146 5.2542,-0.69007 3.46396,-0.10974 4.19764,-0.19464 5.0695,-0.5867 1.19073,-0.53545 2.63697,-1.94417 3.03951,-2.96067 0.41827,-1.0562 0.86167,-1.47844 1.55257,-1.47844 0.42375,0 0.73494,0.17868 0.99077,0.56886 1.07546,1.64025 -1.7933,5.85831 -4.58004,6.73426 -0.8235,0.25885 -2.21275,0.39011 -4.76663,0.45035 -4.05825,0.0958 -5.31555,0.3711 -6.62096,1.45002 -0.45503,0.37607 -1.02182,1.06475 -1.25954,1.5304 -0.23772,0.46565 -0.62244,0.94837 -0.85495,1.07272 -0.48395,0.25883 -0.41038,0.25884 -1.05535,-1.6e-4 z M 31.898728,203.44851 c -1.968091,-0.97352 -3.663724,-3.40037 -3.926806,-5.62017 -0.143328,-1.20931 0.13598,-3.00923 0.822195,-5.29844 1.181309,-3.94088 0.798829,-6.64595 -1.204072,-8.51573 -0.65291,-0.60951 -0.708721,-1.03129 -0.227345,-1.71808 1.009377,-1.44012 3.655507,0.5545 4.70887,3.5495 0.607758,1.72799 0.528374,3.1639 -0.36503,6.60278 -0.652092,2.51004 -0.771689,3.30456 -0.691428,4.59341 0.110553,1.77538 0.457835,2.42245 2.168817,4.04097 1.208317,1.14302 1.324621,1.7106 0.485654,2.37008 -0.705172,0.55431 -0.641219,0.55447 -1.770855,-0.004 z m 180.910492,-0.87078 c -0.31726,-0.2494 -0.57683,-0.64038 -0.57683,-0.86887 0,-0.89062 1.11256,-2.88091 2.24049,-4.00808 1.54692,-1.54587 2.89149,-2.0404 6.36235,-2.34004 1.46949,-0.12686 3.09894,-0.32576 3.62102,-0.44201 2.14579,-0.47777 3.61347,-1.71193 4.30947,-3.6238 0.64088,-1.76047 1.6159,-2.28698 2.53476,-1.36875 0.38473,0.38448 0.43576,0.61712 0.31371,1.43041 -0.3127,2.08383 -1.72075,4.31274 -3.31384,5.24571 -1.4502,0.8493 -2.68838,1.14758 -5.80937,1.3995 -4.28193,0.34561 -6.04107,1.17732 -7.34621,3.47324 -0.93961,1.65289 -1.37443,1.85818 -2.33555,1.10269 z M 25.97996,195.14764 c -0.812688,-0.32634 -2.394011,-2.10943 -3.03892,-3.42668 -1.085402,-2.21698 -0.930887,-3.92665 0.786996,-8.70784 1.217708,-3.38909 1.114196,-5.61546 -0.342061,-7.3573 -1.090945,-1.3049 -0.922811,-2.3976 0.418706,-2.72114 0.530533,-0.12795 0.742422,-0.014 1.559388,0.83797 0.519992,0.54232 1.224327,1.56345 1.565205,2.26917 0.525676,1.08831 0.618415,1.54884 0.610852,3.03333 -0.0074,1.5285 -0.14025,2.1105 -1.045676,4.5943 -1.720101,4.71865 -1.600983,6.6741 0.533413,8.75687 1.037584,1.01249 1.189045,2.04303 0.383175,2.60709 -0.547156,0.38298 -0.726171,0.39727 -1.431078,0.11423 z M 218.89989,194.847 c -1.0279,-0.75111 -0.0493,-3.66881 1.86058,-5.54758 1.36264,-1.34039 2.52688,-1.82632 5.59258,-2.33418 4.32158,-0.71589 5.80188,-1.38796 6.91278,-3.13848 0.35834,-0.56467 0.71321,-1.41213 0.7886,-1.88324 0.24289,-1.51793 1.50939,-2.17694 2.36596,-1.23108 0.32087,0.35432 0.37091,0.67796 0.27249,1.76257 -0.2411,2.65712 -2.12902,5.15637 -4.59021,6.07659 -0.67861,0.25373 -2.44274,0.66408 -3.92028,0.9119 -2.71455,0.45529 -4.49866,1.09928 -5.37085,1.93865 -0.81999,0.78913 -1.53899,1.86207 -1.80565,2.69453 -0.34577,1.07941 -1.22631,1.39313 -2.106,0.75032 z m 5.24404,-8.55184 c -0.47864,-0.72998 -0.2689,-2.08785 0.5868,-3.79909 1.19327,-2.38634 2.74161,-3.41028 6.66403,-4.40705 3.08563,-0.78412 4.65209,-1.50929 5.65385,-2.61736 0.74802,-0.8274 1.45477,-2.59744 1.45477,-3.64343 0,-0.53757 0.73953,-1.17597 1.36226,-1.17597 0.21403,0 0.59852,0.20925 0.85444,0.46499 0.40676,0.40648 0.45222,0.64778 0.36128,1.91781 -0.19669,2.7471 -1.66296,5.02219 -3.95198,6.13196 -0.74941,0.36333 -2.54476,0.96494 -3.98966,1.3369 -2.71578,0.69912 -3.86252,1.23439 -5.09877,2.38001 -0.72488,0.67174 -1.5647,2.221 -1.57363,2.90297 -0.0141,1.07441 -1.70906,1.44521 -2.32339,0.50826 z M 19.483968,185.08487 c -1.54188,-1.64727 -2.191771,-3.22029 -2.166559,-5.244 0.02151,-1.72343 0.11738,-2.01176 2.18324,-6.56329 0.769471,-1.6953 0.844039,-2.0256 0.844039,-3.73851 0,-1.73933 -0.05287,-1.96389 -0.711501,-3.02271 -0.824454,-1.32536 -0.880339,-1.82112 -0.273657,-2.42739 0.648525,-0.64808 1.278723,-0.53563 2.145732,0.38286 1.33498,1.41425 1.904411,2.93539 1.904138,5.08656 -2.15e-4,1.68923 -0.07745,2.02996 -0.842964,3.71919 -2.237486,4.93734 -2.206474,4.84682 -2.214293,6.46242 -0.0066,1.37698 0.07273,1.67215 0.750308,2.78939 0.41677,0.6872 0.823511,1.24945 0.903871,1.24945 0.08034,0 0.268287,0.29477 0.417622,0.65504 0.38963,0.94003 -0.156435,1.7515 -1.178645,1.7515 -0.595594,0 -0.922306,-0.20413 -1.761331,-1.10051 z m 209.550902,-7.23051 c -0.5444,-0.31688 -0.51556,-2.45916 0.0534,-3.96694 0.91314,-2.41981 2.91368,-3.97859 6.67854,-5.20379 4.1906,-1.36374 5.90353,-3.06744 6.18323,-6.14988 0.10388,-1.1449 0.19348,-1.34861 0.71073,-1.61591 1.37517,-0.71064 2.09603,0.29867 1.92448,2.69454 -0.13657,1.90749 -1.02903,3.93137 -2.19963,4.98823 -0.94538,0.85349 -2.29707,1.51347 -5.19579,2.53687 -2.42493,0.85613 -2.92041,1.12284 -4.0936,2.20352 -1.10931,1.02182 -1.81738,2.25332 -1.81738,3.16083 0,1.29791 -1.1485,1.99015 -2.24398,1.35253 z M 15.113501,175.80548 c -1.289198,-1.32557 -2.000741,-3.22552 -1.970904,-5.2626 0.02557,-1.74426 0.386138,-2.70449 2.048103,-5.45411 1.527863,-2.52777 2.038571,-3.91065 2.065934,-5.5941 0.01903,-1.17328 -0.08225,-1.60866 -0.578938,-2.48879 -0.752343,-1.33306 -0.767369,-1.98718 -0.05635,-2.45275 0.851561,-0.55759 1.550882,-0.24508 2.381103,1.06404 0.975833,1.53875 1.232751,2.37486 1.232751,4.01189 0,1.81978 -0.405301,2.93669 -2.19359,6.04499 -0.818389,1.42249 -1.606196,3.07877 -1.750674,3.68063 -0.414337,1.72596 0.02664,3.69554 1.09869,4.9074 0.616801,0.69722 0.734388,1.37979 0.341043,1.97969 -0.574628,0.8764 -1.488751,0.72402 -2.617195,-0.43629 z m 218.102579,-6.83129 c -0.67926,-0.18019 -0.93635,-1.28162 -0.68217,-2.92266 0.50701,-3.27325 1.89719,-4.79644 6.26689,-6.86642 4.43517,-2.101 5.5485,-3.36631 5.70852,-6.48783 0.0626,-1.21973 0.17518,-1.66879 0.47325,-1.8866 0.61603,-0.45015 1.3306,-0.3363 1.82406,0.29061 0.64741,0.82248 0.63066,3.19349 -0.0362,5.11174 -0.75902,2.18366 -1.77977,3.06544 -5.90717,5.10297 -2.78952,1.37707 -3.58278,1.87322 -4.18704,2.61882 -1.02973,1.2706 -1.40748,2.084 -1.58345,3.40968 -0.19219,1.44777 -0.74685,1.92941 -1.87677,1.62969 z M 11.676254,166.22204 c -1.668179,-1.81642 -2.3742853,-4.89863 -1.633112,-7.12859 0.205766,-0.61907 0.883756,-1.88101 1.506647,-2.80431 0.622892,-0.92329 1.537925,-2.3034 2.033408,-3.06689 1.418973,-2.1865 1.746992,-4.6842 0.844254,-6.4287 -0.67612,-1.30659 -0.246566,-2.17567 1.075357,-2.17567 1.180349,0 2.324242,2.42365 2.324242,4.92455 0,2.10004 -0.469659,3.33699 -2.143125,5.64437 -2.201799,3.03585 -2.728286,4.1334 -2.838773,5.91794 -0.08693,1.40406 -0.03235,1.68399 0.539163,2.76546 0.941635,1.78182 0.960873,1.88338 0.47397,2.50196 -0.611919,0.7774 -1.37866,0.72465 -2.182031,-0.15012 z m 224.404796,-6.9136 c -0.73954,-0.59844 -0.83985,-2.58684 -0.23146,-4.58844 0.65177,-2.14439 1.73388,-3.2696 4.97878,-5.17709 4.45752,-2.62033 5.44358,-3.87969 5.39877,-6.89517 -0.0248,-1.67314 0.16163,-2.2015 0.87095,-2.46749 1.25764,-0.47164 2.01207,0.90546 1.98492,3.62318 -0.0145,1.45282 -0.11962,1.9098 -0.71925,3.12698 -0.81062,1.64548 -1.89347,2.60251 -4.73161,4.1818 -3.89993,2.17012 -5.25098,3.79622 -5.50807,6.62937 -0.0922,1.01628 -0.22965,1.41049 -0.57638,1.65318 -0.59684,0.41776 -0.86307,0.40209 -1.46665,-0.0863 z M 9.0256392,156.26773 c -1.0866424,-1.15878 -1.5592307,-2.42766 -1.6624943,-4.46372 -0.1376517,-2.71394 0.4299424,-3.88328 3.6438321,-7.50699 1.641353,-1.85063 2.441183,-3.58211 2.441406,-5.28512 9.1e-5,-0.73691 -0.1344,-1.72141 -0.298877,-2.18776 -0.366776,-1.03992 -0.142442,-1.76825 0.602156,-1.95501 0.944068,-0.23678 1.462223,0.10014 2.017281,1.31171 0.734661,1.60362 0.891716,3.44368 0.429537,5.03244 -0.462932,1.59136 -1.053793,2.52807 -3.070412,4.86763 -2.268159,2.63137 -2.847486,3.75758 -2.848711,5.53782 -7.11e-4,1.0313 0.133788,1.6965 0.489485,2.42092 0.595023,1.21181 0.623272,1.98545 0.09011,2.46764 -0.580899,0.52534 -1.190742,0.44566 -1.8333098,-0.23956 z M 238.58552,149.86979 c -0.96797,-0.38639 -1.27871,-3.21174 -0.59249,-5.38718 0.55467,-1.75844 1.67455,-3.03987 4.18426,-4.78785 1.23799,-0.86225 2.60097,-1.90399 3.02885,-2.31497 1.68807,-1.62143 2.34957,-3.61003 1.85447,-5.5749 -0.21252,-0.84347 -0.20103,-1.10323 0.0669,-1.51192 0.6776,-1.03345 1.88877,-0.79847 2.46221,0.47769 0.25749,0.57302 0.37721,1.43973 0.38664,2.79902 0.0232,3.34629 -0.92326,4.76523 -5.05942,7.58502 -3.51858,2.39876 -4.48652,3.82549 -4.53387,6.68284 -0.0144,0.86837 -0.12304,1.66951 -0.24144,1.78032 -0.35741,0.33451 -1.06308,0.44875 -1.55614,0.25193 z M 7.5187685,146.29031 c -1.1527297,-0.5743 -2.1181204,-3.49646 -1.8887643,-5.71717 0.1843769,-1.78524 1.0693162,-3.17734 3.9071788,-6.14643 2.055997,-2.15108 2.636226,-2.90321 3.010217,-3.90214 0.5119,-1.36724 0.578831,-2.43732 0.230796,-3.68977 -0.287368,-1.03411 -0.135666,-1.53424 0.581735,-1.91793 1.319507,-0.70569 2.454637,1.17331 2.483423,4.11086 0.02441,2.49194 -0.78995,3.91354 -4.180248,7.29725 -2.2475391,2.24318 -3.0258058,3.61466 -3.0299264,5.33943 -0.00165,0.72195 0.1594132,1.76591 0.3580881,2.3199 0.2004042,0.55881 0.3006891,1.24828 0.225252,1.54862 -0.1834501,0.73043 -1.0109324,1.09957 -1.6977512,0.75738 z M 239.7262,139.8255 c -0.47843,-0.52831 -1.0039,-2.25425 -1.0039,-3.2974 0,-1.20334 0.61751,-3.0438 1.43304,-4.27108 0.39978,-0.60163 1.66173,-1.8623 2.80433,-2.80149 4.16974,-3.42741 4.64954,-4.49031 3.9492,-8.74871 -0.2473,-1.50376 1.06714,-2.24059 2.07828,-1.16502 0.98086,1.04337 1.45395,4.33228 0.90054,6.26055 -0.34681,1.20846 -1.62397,2.85371 -3.22736,4.15752 -2.27976,1.85382 -3.83408,3.50222 -4.43523,4.70369 -0.45641,0.9122 -0.54731,1.40611 -0.54731,2.97374 0,2.03529 -0.23785,2.60506 -1.0875,2.60506 -0.26762,0 -0.65645,-0.18759 -0.86409,-0.41686 z M 6.367826,135.8379 c -0.221934,-0.12892 -0.6396717,-0.74124 -0.9282968,-1.3607 -0.419285,-0.89989 -0.5232685,-1.47811 -0.5173027,-2.87651 0.012908,-3.02598 0.7283642,-4.27077 4.0280336,-7.00824 3.5770089,-2.96755 4.6680779,-4.80119 4.3798829,-7.36075 -0.221007,-1.96283 0.192577,-2.57676 1.512804,-2.24563 1.21242,0.30409 1.753454,3.78627 0.949843,6.11336 -0.507398,1.46934 -1.46564,2.62144 -3.791082,4.55803 -2.2013683,1.83327 -2.8680143,2.52443 -3.5748405,3.70628 -0.6515866,1.0895 -0.8349622,3.07818 -0.4011558,4.35048 0.366627,1.07525 0.2153394,1.77638 -0.461393,2.13831 -0.5338597,0.28553 -0.68293,0.2837 -1.1964927,-0.0146 z M 240.4737,130.11466 c -0.81066,-0.40929 -1.18336,-1.68934 -1.19165,-4.09276 -0.007,-1.90277 0.0481,-2.17906 0.64697,-3.27005 0.36426,-0.66358 1.70622,-2.26329 3.02821,-3.6098 1.30573,-1.32998 2.61106,-2.8825 2.90074,-3.45006 0.64136,-1.25654 0.70332,-3.07601 0.15665,-4.60019 -0.43068,-1.20081 -0.24131,-2.09204 0.5026,-2.36523 0.76072,-0.27937 1.46637,0.25412 2.15319,1.62785 0.55775,1.11557 0.64553,1.53955 0.65677,3.17225 0.0182,2.64632 -0.52314,3.67538 -3.58223,6.80928 -3.41422,3.49769 -4.15072,5.13633 -3.50938,7.80792 0.29152,1.2144 0.2903,1.2213 -0.30895,1.7364 -0.69491,0.59733 -0.72455,0.60211 -1.45292,0.23439 z M 5.5132121,124.32639 C 4.8785877,122.915 4.7684233,120.93626 5.234632,119.32264 c 0.6135497,-2.12355 1.5795361,-3.18454 4.983727,-5.47384 2.342958,-1.57564 2.969623,-2.21134 3.828192,-3.88345 0.457661,-0.89133 0.57701,-1.44185 0.589918,-2.72118 0.01332,-1.32352 0.09043,-1.65805 0.441138,-1.91429 0.577093,-0.42167 1.070028,-0.39015 1.685298,0.10772 0.47992,0.38835 0.51684,0.5723 0.51684,2.57522 0,1.99529 -0.05378,2.26623 -0.717774,3.61401 -0.772822,1.56876 -1.558676,2.32501 -4.398012,4.23233 -0.887132,0.59594 -2.135554,1.64695 -2.7742659,2.33559 -1.4479493,1.56112 -1.867648,2.98401 -1.4570924,4.93998 0.3323715,1.58353 -0.0096,2.23084 -1.1786118,2.23084 -0.7112447,0 -0.8111158,-0.0836 -1.2407768,-1.03918 z M 240.01046,120.11383 c -0.19457,-0.11363 -0.58156,-0.72594 -0.85996,-1.3607 -0.75676,-1.72536 -0.72397,-4.42523 0.0739,-6.0874 0.48165,-1.00342 2.00777,-2.99359 3.89698,-5.08198 0.1936,-0.214 0.6376,-0.95237 0.98667,-1.64081 0.81307,-1.60355 0.86289,-3.38518 0.13635,-4.87591 -0.59155,-1.213735 -0.61862,-1.98638 -0.0865,-2.467643 0.58475,-0.528834 1.25734,-0.443964 1.89064,0.23856 1.02666,1.106453 1.49617,2.421393 1.60388,4.491973 0.0938,1.80263 0.0587,2.0038 -0.57122,3.28165 -0.36911,0.7487 -1.46156,2.29656 -2.42764,3.43967 -2.56667,3.03697 -2.97063,3.85832 -2.95904,6.01634 0.005,0.96262 0.0924,2.1836 0.1938,2.71331 0.15615,0.81551 0.12258,1.00828 -0.21911,1.25796 -0.46634,0.34076 -1.15066,0.37169 -1.65878,0.075 z M 6.9563955,114.84944 c -0.9048639,-0.33451 -1.3274421,-2.75999 -0.8660904,-4.97114 0.5610077,-2.68879 1.8980563,-4.09934 6.0322329,-6.36384 3.15712,-1.72931 4.548646,-3.558393 4.719097,-6.202966 0.116288,-1.804332 0.86336,-2.395231 2.011887,-1.591313 1.013878,0.709662 0.807516,4.105712 -0.375249,6.175249 -0.788949,1.38046 -1.871331,2.27292 -4.786699,3.94683 -3.8721288,2.22325 -4.9244992,3.59786 -4.8971857,6.39674 0.00877,0.90245 -0.028133,1.80487 -0.081999,2.00539 -0.1272012,0.47302 -1.1550629,0.82718 -1.7559611,0.60505 z M 238.67228,110.10592 c -0.85483,-0.97169 -1.33993,-2.36636 -1.43689,-4.13113 -0.13013,-2.36813 0.25106,-3.45109 2.16174,-6.141456 2.28784,-3.221439 2.72007,-4.208376 2.71103,-6.19032 -0.007,-1.417223 -0.1008,-1.811558 -0.69234,-2.893701 -0.75708,-1.384984 -0.74148,-2.039527 0.0573,-2.403226 0.87722,-0.399412 1.53528,-0.03779 2.46614,1.355233 1.42574,2.133609 1.72923,4.637788 0.82758,6.828549 -0.28204,0.685319 -1.21511,2.222241 -2.07346,3.415374 -2.13886,2.973087 -2.53789,3.907927 -2.54352,5.958867 -0.003,1.20927 0.0979,1.80663 0.37859,2.23475 0.75918,1.15787 0.29647,2.34992 -0.91213,2.34992 -0.33397,0 -0.75878,-0.17228 -0.94402,-0.38286 z M 8.1880127,103.98019 c -0.4279814,-0.54097 -0.4666308,-0.80017 -0.3833248,-2.57062 0.1811416,-3.849643 1.2535191,-5.1528 6.2503031,-7.595385 4.293176,-2.098648 5.384535,-3.24484 5.885314,-6.180993 0.144577,-0.847658 0.314375,-1.159248 0.77029,-1.413528 0.500969,-0.279399 0.665306,-0.283128 1.146044,-0.02605 0.73232,0.391664 0.915604,1.392409 0.574942,3.139249 -0.554024,2.84093 -2.070353,4.599742 -5.259254,6.10029 -3.275831,1.541445 -4.033892,1.971393 -4.900081,2.779138 -1.148361,1.070889 -1.702104,2.380229 -1.79097,4.234749 -0.05519,1.15203 -0.168937,1.59426 -0.468402,1.82117 -0.6250178,0.47359 -1.3075423,0.36585 -1.8248613,-0.28804 z M 236.67421,100.32918 c -1.06358,-1.146833 -1.73995,-2.756866 -1.84493,-4.39169 -0.13599,-2.11755 0.27615,-3.406336 2.02801,-6.341844 1.61534,-2.70672 1.95259,-3.628235 1.96164,-5.360017 0.007,-1.19554 -0.2919,-2.005652 -1.45978,-3.966415 -0.4532,-0.760872 -0.45727,-0.818187 -0.0972,-1.367352 1.12112,-1.709884 3.51224,0.370034 4.44441,3.865963 0.61887,2.320978 0.23712,3.622514 -2.38772,8.140479 -1.78528,3.072884 -2.07888,5.774404 -0.81961,7.541667 0.56004,0.78599 0.56144,1.41839 0.004,1.975109 -0.58582,0.58542 -1.22856,0.55173 -1.82917,-0.0959 z M 10.724408,93.81311 c -0.8336381,-1.189379 -0.210126,-4.546079 1.207787,-6.502125 0.900123,-1.241745 2.102772,-1.950646 5.391519,-3.178037 4.139556,-1.544925 5.989968,-3.050109 6.310756,-5.133361 0.207843,-1.349739 0.583307,-1.866394 1.414273,-1.9461 0.979374,-0.09394 1.316379,0.373272 1.316379,1.824967 0,1.483279 -0.477487,2.816559 -1.487633,4.153904 -1.068348,1.414388 -2.357853,2.16808 -5.968438,3.488436 -2.64426,0.966985 -3.055279,1.189678 -4.073212,2.206919 -1.180242,1.17944 -1.825135,2.654157 -1.825135,4.173664 0,0.390705 -0.154812,0.865089 -0.344021,1.05417 -0.510642,0.510287 -1.537561,0.434975 -1.942275,-0.142437 z M 233.5663,90.692615 c -0.39586,-0.419447 -0.99859,-1.330105 -1.3394,-2.023684 -0.53429,-1.087327 -0.6191,-1.517209 -0.61561,-3.120644 0.004,-1.985582 -0.0966,-1.666079 2.06709,-6.546412 1.43684,-3.240947 1.4128,-4.840165 -0.10438,-6.943898 -1.13292,-1.570901 -1.27694,-2.003056 -0.8729,-2.619275 0.24526,-0.374069 0.54299,-0.517411 1.07468,-0.517411 0.96702,0 2.29242,1.304062 3.19266,3.141256 1.25423,2.559623 1.0898,4.18733 -0.84988,8.412796 -1.44481,3.147426 -1.61699,3.771308 -1.519,5.504215 0.0681,1.204842 0.21721,1.699377 0.78981,2.619874 0.81881,1.316296 0.87383,1.812824 0.26799,2.418267 -0.63816,0.637724 -1.27599,0.538566 -2.09106,-0.325084 z M 14.315773,84.00838 c -0.428495,-0.428212 -0.472291,-0.651277 -0.380255,-1.936776 0.190566,-2.661598 1.605195,-4.917232 3.818453,-6.08854 0.702441,-0.371751 2.457211,-0.982654 3.899492,-1.357564 1.442274,-0.37491 3.022488,-0.875241 3.511584,-1.111848 1.2842,-0.621246 2.658773,-2.075077 3.073788,-3.251012 0.715498,-2.027342 0.693505,-1.997678 1.481006,-1.997678 1.115007,0 1.557013,0.611787 1.380166,1.91029 -0.314706,2.310708 -2.204041,4.892604 -4.238218,5.791809 -0.55678,0.246122 -2.103128,0.732327 -3.436321,1.080455 -3.031515,0.791594 -4.499496,1.497934 -5.471432,2.632654 -0.759575,0.886787 -1.440536,2.470072 -1.440536,3.349352 0,1.166632 -1.390211,1.785826 -2.197727,0.978858 z M 230.22306,81.820703 c -1.35651,-0.824379 -2.62378,-3.244522 -2.80232,-5.35163 -0.12056,-1.42294 0.11739,-2.40706 1.53408,-6.344513 1.25065,-3.476006 1.03607,-5.417045 -0.81022,-7.329005 -1.09133,-1.130145 -1.29866,-1.610283 -0.98879,-2.289894 0.54405,-1.193252 1.78218,-0.93416 3.39701,0.710859 1.26699,1.290664 2.06687,3.007213 2.18802,4.695421 0.10559,1.471438 -0.11619,2.386334 -1.55149,6.400382 -1.14768,3.209658 -0.97442,5.614494 0.52624,7.303958 0.70022,0.788332 0.8302,1.476255 0.38424,2.033679 -0.4287,0.535834 -1.16569,0.602884 -1.87677,0.170743 z M 18.72781,74.471121 c -0.459697,-0.321761 -0.501706,-0.49075 -0.42425,-1.706383 0.160762,-2.523003 1.881698,-5.064509 4.095296,-6.048008 0.555927,-0.246998 1.700399,-0.584485 2.543255,-0.74997 0.842865,-0.165484 2.363885,-0.461231 3.380055,-0.657213 1.01617,-0.195983 2.271981,-0.604878 2.790683,-0.908654 1.250375,-0.732269 2.555468,-2.243795 2.884265,-3.340478 0.190905,-0.636757 0.412806,-0.922847 0.788973,-1.017194 2.331234,-0.584707 2.315803,2.428256 -0.02714,5.293777 -1.260743,1.541955 -3.589892,2.483161 -7.49118,3.027171 -1.433543,0.199897 -3.547436,0.962461 -4.34585,1.567713 -0.877451,0.665162 -1.716874,2.071309 -2.005135,3.358852 -0.326968,1.460457 -1.152721,1.905732 -2.188998,1.180387 z m 206.23203,-2.152106 c -1.47394,-1.377757 -2.26261,-3.032492 -2.3827,-4.999184 -0.0794,-1.300596 0.0394,-2.090269 0.69064,-4.590716 0.46118,-1.770672 0.78567,-3.535442 0.78442,-4.266138 -0.002,-1.67829 -0.73836,-3.224089 -2.04185,-4.291471 -0.55204,-0.452052 -1.0599,-0.998818 -1.12857,-1.215035 -0.1849,-0.582166 0.32863,-1.529473 0.90787,-1.674756 1.10767,-0.277817 3.84025,2.034131 4.70007,3.976572 0.72519,1.638305 0.74781,3.394365 0.076,5.896446 -0.98428,3.665526 -1.17258,4.865423 -0.97867,6.236309 0.21126,1.493638 0.59988,2.300913 1.63636,3.399151 0.85352,0.904375 0.93739,1.297682 0.43084,2.020392 -0.56664,0.808438 -1.48231,0.641379 -2.69434,-0.49157 z M 24.066414,65.378221 c -0.688349,-0.390071 -0.787989,-0.654332 -0.643866,-1.707561 0.296883,-2.169583 2.061416,-4.687005 3.891788,-5.55232 1.117639,-0.528368 2.119312,-0.709117 6.775392,-1.222596 3.043571,-0.335649 4.886984,-1.412801 5.86184,-3.425222 0.563449,-1.16313 1.262927,-1.582007 2.046217,-1.225358 1.226809,0.558594 0.682044,2.832526 -1.180143,4.926048 -1.543278,1.734991 -2.775664,2.193167 -6.899606,2.565135 -3.750339,0.33827 -5.001633,0.728858 -6.252123,1.951588 -0.643561,0.62927 -1.16515,1.402547 -1.411162,2.092113 -0.386668,1.083801 -1.02015,1.865775 -1.501087,1.852946 -0.137172,-0.0036 -0.446434,-0.118307 -0.68725,-0.254773 z M 220.55154,64.630404 c -1.13702,-0.76468 -2.46502,-2.201725 -3.00976,-3.256895 -0.81437,-1.577449 -0.89779,-3.677124 -0.2738,-6.892143 0.87051,-4.485189 0.36206,-6.509904 -2.08925,-8.319554 -0.96918,-0.715498 -1.19494,-1.001904 -1.19494,-1.515963 0,-0.750785 0.50171,-1.321383 1.16185,-1.321383 0.92711,0 2.83359,1.176572 3.72224,2.297151 1.86646,2.35361 2.11053,4.066119 1.24717,8.751051 -0.56419,3.061517 -0.48608,4.46417 0.3437,6.171223 0.30606,0.629657 0.94039,1.445328 1.41793,1.823288 0.54219,0.429132 0.8641,0.865251 0.8641,1.170662 0,1.118277 -1.23475,1.734491 -2.18924,1.092563 z M 29.624355,56.426414 c -0.362068,-0.361825 -0.435097,-0.630888 -0.336327,-1.239145 0.365808,-2.252671 2.696877,-4.988822 4.80659,-5.641845 0.757896,-0.234594 2.48728,-0.404454 5.187077,-0.509475 3.262617,-0.126915 4.199097,-0.234595 4.816346,-0.553805 1.330975,-0.688303 2.179234,-1.436287 2.629838,-2.318946 0.565939,-1.108583 1.145324,-1.428883 1.968404,-1.088185 0.909986,0.376674 1.010436,1.140404 0.33219,2.525753 -0.730748,1.492565 -2.028659,2.776843 -3.565905,3.528437 -1.159324,0.566817 -1.442033,0.605942 -5.290026,0.732107 -3.42385,0.112257 -4.220693,0.203248 -5.050418,0.576698 -1.38978,0.625521 -2.252164,1.418708 -2.864456,2.634604 -0.290884,0.577646 -0.6673,1.222553 -0.836468,1.433125 -0.416563,0.518497 -1.23477,0.482376 -1.796845,-0.07932 z m 184.345125,-0.07525 c -0.4293,-0.281428 -1.24257,-1.025221 -1.80727,-1.652873 -1.41097,-1.568274 -1.8038,-2.92032 -1.68372,-5.795031 0.21304,-5.100084 0.1356,-6.724392 -0.3651,-7.65717 -0.55297,-1.030182 -1.64214,-2.102603 -2.65211,-2.611345 -0.99645,-0.501934 -1.31319,-1.248478 -0.83749,-1.973994 1.00748,-1.536549 4.82638,0.481108 6.27536,3.315485 0.52817,1.033182 0.53628,1.131659 0.47596,5.783528 -0.076,5.860365 0.0964,6.525264 2.15613,8.315544 1.38687,1.20544 1.60811,1.809206 0.89822,2.451215 -0.55448,0.501451 -1.53407,0.43162 -2.45998,-0.175359 z m -6.28318,-7.115366 c -1.37433,-0.62338 -3.2046,-2.454355 -3.78733,-3.78881 -0.43346,-0.992642 -0.51565,-1.655094 -0.64328,-5.185391 -0.12673,-3.505165 -0.2113,-4.1939 -0.6313,-5.141242 -0.605,-1.36459 -1.54367,-2.349735 -2.72557,-2.860495 -1.2718,-0.54961 -1.67762,-0.942565 -1.67762,-1.624419 0,-2.137288 3.46863,-1.425567 5.87488,1.205462 1.5548,1.700041 1.80675,2.671599 1.88814,7.280766 0.0861,4.876277 0.56406,6.138877 2.88576,7.623044 1.16523,0.74488 1.25889,0.880884 1.18519,1.720995 -0.041,0.467179 -0.77232,1.206428 -1.18564,1.198465 -0.13717,-0.0026 -0.66963,-0.195411 -1.18323,-0.428375 z m -171.067954,-0.7457 c -1.247934,-0.618146 -0.449287,-3.15408 1.586495,-5.037577 2.037959,-1.885512 3.09397,-2.102994 8.630778,-1.777482 4.19673,0.246728 5.138026,-0.0189 7.015107,-1.979661 1.603466,-1.674946 2.274497,-1.806902 2.92385,-0.574964 0.558641,1.059826 -1.506267,3.83391 -3.633001,4.880736 -1.106013,0.544406 -2.657152,0.628475 -8.311554,0.450474 -2.668479,-0.084 -3.625711,0.222814 -5.001012,1.60295 -0.602048,0.60416 -1.253875,1.403515 -1.44852,1.776343 -0.409795,0.784935 -1.035632,1.019048 -1.762143,0.659181 z M 200.6052,42.565358 c -2.08578,-0.76718 -3.83431,-2.458695 -4.56842,-4.419446 -0.25477,-0.68046 -0.53134,-2.236245 -0.66423,-3.736556 -0.25563,-2.885812 -0.50918,-4.316337 -0.95332,-5.378586 -0.41029,-0.981289 -1.96168,-2.279336 -3.42195,-2.86314 -0.87458,-0.34965 -1.25843,-0.637294 -1.40457,-1.052573 -0.28354,-0.805679 0.32139,-1.699237 1.15035,-1.699237 2.03071,0 4.99493,1.806068 5.99335,3.651661 0.79402,1.46777 1.01365,2.438575 1.27256,5.624761 0.34622,4.260748 1.32407,6.246875 3.62318,7.359104 1.48214,0.716997 1.74749,1.419697 0.86803,2.298568 -0.60557,0.60516 -0.78115,0.625123 -1.89498,0.215444 z M 43.556105,40.705084 c -0.511634,-0.564967 -0.329607,-1.492763 0.566726,-2.888628 0.795096,-1.238212 1.936052,-2.192818 3.405878,-2.849609 1.337885,-0.597835 3.813315,-0.61964 6.311492,-0.0556 0.963273,0.217489 2.542982,0.39209 3.510467,0.388003 2.18496,-0.0092 3.400285,-0.49958 4.725104,-1.906463 0.587701,-0.624098 1.137811,-1.007142 1.446427,-1.007142 0.591929,0 1.373712,0.717574 1.373712,1.260884 0,0.712583 -1.479805,2.597702 -2.606181,3.320003 -2.227309,1.428294 -3.95076,1.618475 -7.82049,0.862989 -4.797488,-0.936613 -6.764461,-0.330825 -8.903673,2.742145 -0.481417,0.691551 -1.446013,0.755594 -2.009462,0.133415 z M 192.70028,36.453826 c -1.45112,-0.390286 -3.2963,-1.680446 -4.12516,-2.884339 -0.84979,-1.234286 -1.13669,-2.142956 -1.73653,-5.499855 -0.84283,-4.71677 -1.8911,-6.18693 -5.03155,-7.056533 -1.37719,-0.381353 -1.82406,-1.061314 -1.36262,-2.073371 0.22652,-0.496817 0.38073,-0.555757 1.45396,-0.555757 2.7536,0 5.4791,1.846949 6.55841,4.444357 0.30926,0.744267 0.76275,2.583832 1.00773,4.087918 0.70805,4.347166 1.99331,6.344724 4.63247,7.199827 1.15505,0.374241 1.41778,1.302914 0.61288,2.166295 -0.5078,0.544682 -0.59442,0.552072 -2.00959,0.171458 z M 51.76356,33.963621 c -0.696318,-0.563467 -0.625241,-1.411979 0.220097,-2.627261 0.98227,-1.412156 1.960445,-2.192598 3.554552,-2.836052 1.170652,-0.472524 1.575366,-0.529561 3.001943,-0.423036 0.906883,0.06772 2.486262,0.380039 3.509738,0.694059 3.902885,1.197462 6.739076,0.940058 8.583912,-0.779053 0.505975,-0.47149 1.130703,-0.857258 1.388283,-0.857258 0.625973,0 1.192975,0.662522 1.192975,1.393955 0,0.896502 -1.687374,2.574872 -3.342041,3.324199 -2.100438,0.951197 -3.424,0.952751 -6.986305,0.0082 -3.269452,-0.866895 -5.349709,-1.012381 -6.65898,-0.465706 -0.425044,0.177477 -1.292905,0.855032 -1.928572,1.50568 -1.376468,1.408906 -1.857951,1.610621 -2.535602,1.062268 z M 184.22957,31.05443 c -1.93077,-0.378711 -4.15306,-2.134692 -5.12524,-4.049816 -0.18911,-0.372538 -0.64688,-1.84928 -1.01726,-3.281644 -1.26818,-4.904412 -2.63388,-6.608899 -5.62334,-7.018374 -1.68233,-0.230432 -2.33223,-1.316238 -1.36584,-2.281965 1.00302,-1.002341 4.66828,-0.157999 6.57448,1.514522 1.07467,0.942947 2.02746,2.8522 2.58576,5.18152 0.56996,2.378048 1.30769,4.484916 1.57039,4.484916 0.10573,0 0.1927,0.123063 0.19328,0.273471 0.003,0.81326 2.64513,2.770017 3.75977,2.784587 0.99227,0.01298 1.38911,1.421655 0.61768,2.192567 -0.47131,0.470986 -0.68751,0.490937 -2.16968,0.200216 z M 59.965157,27.486349 c -0.222001,-0.338579 -0.291629,-0.729995 -0.196929,-1.10704 0.204855,-0.81565 1.943374,-2.510595 3.376281,-3.291649 1.098343,-0.598688 1.377138,-0.654427 3.174413,-0.634665 1.404956,0.01546 2.315827,0.150267 3.174413,0.469845 5.138936,1.9128 5.979482,2.071188 7.951469,1.498307 0.682786,-0.198359 1.589076,-0.665681 2.013979,-1.038501 1.278601,-1.121865 2.586249,-0.757678 2.586249,0.720279 0,1.792136 -4.293632,3.988173 -6.96911,3.564459 -0.481635,-0.07624 -2.314485,-0.621063 -4.073002,-1.21063 -4.676171,-1.567756 -6.442152,-1.430272 -8.471621,0.659545 -1.046239,1.077339 -2.011158,1.216493 -2.566142,0.37005 z M 174.13945,26.115554 c -0.54184,-0.188237 -1.42848,-0.666607 -1.97032,-1.063042 -1.63942,-1.199484 -2.22258,-2.187429 -3.71313,-6.290537 -0.73754,-2.030241 -1.1407,-2.803431 -1.90437,-3.652247 -1.06219,-1.180615 -2.73991,-1.973774 -4.18761,-1.979736 -0.44701,-0.0017 -0.92114,-0.07566 -1.05363,-0.164084 -0.45069,-0.300725 -0.69608,-1.026495 -0.51184,-1.513786 0.29613,-0.783221 0.99415,-1.005707 2.81222,-0.896361 2.73343,0.164406 4.97149,1.568855 6.1218,3.841626 0.22668,0.447882 0.78122,1.848048 1.23229,3.111474 0.45108,1.263434 1.0494,2.690952 1.32961,3.172257 1.01803,1.748667 2.9508,3.172258 4.30687,3.172258 1.24648,0 1.96738,1.449447 1.13474,2.281527 -0.44763,0.44732 -2.28172,0.437456 -3.59663,-0.01935 z M 82.957219,23.113781 c -0.842861,-0.275687 -2.222252,-0.8509 -3.065313,-1.27826 -1.864349,-0.945064 -3.609794,-1.483283 -4.800988,-1.48043 -1.02111,0.0025 -2.748476,0.744184 -3.800846,1.632086 -1.21612,1.026056 -2.453512,0.697846 -2.453512,-0.65078 0,-1.454524 3.292429,-3.766455 5.69195,-3.996863 1.481113,-0.142213 2.737732,0.208181 5.692148,1.58722 1.3847,0.646332 2.991394,1.294012 3.570423,1.439285 1.620403,0.406531 3.493984,0.151789 4.785805,-0.650706 1.268694,-0.788132 1.769846,-0.838323 2.371091,-0.237486 0.804662,0.804116 0.494962,1.607661 -1.021457,2.650279 -1.208979,0.831237 -3.262328,1.510263 -4.5259,1.496686 -0.501011,-0.0058 -1.600537,-0.235344 -2.443401,-0.511031 z m 82.419161,-0.640817 c -1.56366,-0.350461 -3.03734,-1.223041 -4.03966,-2.391939 -0.43925,-0.512239 -1.47462,-2.314966 -2.30085,-4.006066 -1.14891,-2.351605 -1.73284,-3.287168 -2.48283,-3.978027 -1.09413,-1.00784 -2.671,-1.588907 -4.31189,-1.588907 -1.48945,0 -2.22658,-1.0190852 -1.47193,-2.0349706 0.70235,-0.9454858 4.09008,-0.838621 6.23372,0.1966299 1.60458,0.7749187 2.48403,1.9155297 4.27255,5.5412837 1.67265,3.390866 2.6022,4.565039 4.18108,5.281449 0.50108,0.227356 1.28496,0.415535 1.74197,0.418181 0.58598,0.0033 0.98932,0.163101 1.36828,0.541799 0.63756,0.637129 0.67115,0.999629 0.152,1.640314 -0.48731,0.6014 -1.72663,0.74239 -3.34244,0.380253 z M 92.808841,19.945038 C 92.2068,19.717342 90.593968,18.88355 89.224782,18.09216 c -3.807887,-2.200948 -5.567911,-2.391195 -8.047626,-0.869909 -1.754479,1.076362 -2.926822,0.947718 -2.926822,-0.321157 0,-1.284602 1.958502,-2.862487 4.323706,-3.483434 2.307291,-0.605741 4.221532,-0.100787 7.608496,2.007015 2.255027,1.403373 3.633861,1.885654 5.407099,1.891252 1.238113,0.0041 1.682477,-0.09802 2.490565,-0.57126 1.219197,-0.71402 2.03468,-0.660852 2.49357,0.162562 0.51068,0.916339 -0.003,1.63503 -1.839319,2.570469 -1.887151,0.961643 -4.147308,1.139892 -5.92561,0.46734 z m 62.578319,-0.476245 c -2.42181,-0.478816 -4.07902,-1.988253 -6.14433,-5.596461 -1.53375,-2.679534 -2.74538,-4.0966333 -3.94922,-4.6189098 -0.49325,-0.2139942 -1.51442,-0.3699256 -2.56989,-0.3924247 -2.3286,-0.049612 -2.20838,-0.013395 -2.5171,-0.7582243 -0.4279,-1.0323485 0.088,-1.6176325 1.73352,-1.9665969 2.21472,-0.4696793 4.77009,0.1038633 6.30236,1.4145365 0.87864,0.7515762 1.88454,2.1920351 3.52588,5.0491062 1.6821,2.928008 3.50272,4.252713 5.84476,4.252713 1.22162,0 1.70682,0.272156 1.97162,1.10589 0.0817,0.257314 8.3e-4,0.661646 -0.18976,0.952886 -0.49442,0.754065 -1.97316,0.959758 -4.00784,0.557485 z M 103.4267,17.741832 c -1.04932,-0.320123 -2.52879,-1.16531 -4.126947,-2.357633 -3.499511,-2.610845 -5.72701,-3.104462 -8.218327,-1.821216 -1.484158,0.764467 -2.107124,0.827342 -2.617154,0.264152 -0.556448,-0.614448 -0.436338,-1.323763 0.349194,-2.0622 1.737393,-1.633244 4.880273,-2.3295516 7.209777,-1.597324 0.649791,0.204245 1.867152,0.854248 2.705242,1.444452 4.194495,2.953848 5.144775,3.390171 7.325315,3.363414 1.006,-0.01232 1.6702,-0.152053 2.26652,-0.476741 1.22839,-0.668848 2.11198,-0.269122 2.11198,0.955441 0,0.608156 -0.14244,0.829774 -0.82097,1.277359 -0.45153,0.297847 -1.25205,0.693042 -1.77892,0.878211 -0.99391,0.349304 -3.45214,0.423003 -4.40571,0.132085 z m 41.22051,-0.550357 c -2.20056,-0.687263 -3.27787,-1.684105 -5.69116,-5.266061 -2.23672,-3.3198783 -4.923,-4.6913101 -7.45877,-3.8079308 -0.83407,0.2905544 -1.50807,-0.015462 -1.81588,-0.8245475 -0.52333,-1.3755247 1.46604,-2.3786515 4.38268,-2.2099202 2.89809,0.1676564 4.36341,1.1976234 6.83462,4.8040627 1.73204,2.5277028 2.69616,3.4888418 4.273,4.2597998 0.95274,0.465809 1.52224,0.598042 2.46078,0.571368 1.57451,-0.04473 1.9677,0.08508 2.21343,0.730962 0.29494,0.775224 -0.0784,1.527867 -0.89986,1.814031 -0.93262,0.324894 -3.14713,0.287924 -4.29884,-0.07177 z m -30.72758,-0.856862 c -1.37408,-0.37024 -2.59804,-1.135079 -4.91034,-3.068394 -2.85428,-2.386474 -3.80321,-2.864281 -5.69205,-2.866109 -1.16765,-8.27e-4 -1.75558,0.115713 -2.46965,0.490773 -1.106824,0.581357 -1.532505,0.610859 -2.188527,0.151673 -1.814651,-1.2701648 1.439207,-3.666743 4.986567,-3.6727709 2.36156,-0.00413 3.38665,0.5419561 7.41538,3.9494829 0.95037,0.803826 2.10131,1.547274 2.7995,1.808326 1.29778,0.485224 3.19828,0.57881 4.16518,0.205097 1.06046,-0.40988 1.45455,-0.420811 1.86275,-0.05168 0.40126,0.362888 0.50692,1.057725 0.25902,1.703321 -0.18372,0.478444 -1.46883,1.103798 -2.88453,1.403663 -1.42817,0.302502 -2.05981,0.292414 -3.3433,-0.05342 z m 21.33017,-0.150457 c -1.7015,-0.231425 -3.23703,-1.187883 -4.87502,-3.036568 -4.34239,-4.9009558 -5.09286,-5.408514 -7.66621,-5.1847958 -0.79172,0.068796 -1.80025,0.1871788 -2.24119,0.2629946 -0.69233,0.1190447 -0.8505,0.063421 -1.15934,-0.4076144 -0.58883,-0.898048 -0.25391,-1.5874103 1.0906,-2.2447728 0.96165,-0.4701671 1.47235,-0.5693254 2.93212,-0.5693254 3.01647,0 4.36569,0.718708 6.74133,3.5910098 3.38856,4.096956 5.45631,5.340123 7.95067,4.780058 1.65225,-0.370983 2.67182,0.621419 1.87966,1.829577 -0.52863,0.806248 -2.64708,1.252205 -4.65262,0.979437 z m -11.25756,-0.505351 c -1.32307,-0.356538 -2.04608,-0.891425 -4.94039,-3.654927 -1.33989,-1.279326 -2.89107,-2.5461175 -3.44707,-2.8150903 -1.21106,-0.5858629 -3.33623,-0.6469025 -4.57111,-0.1312823 -1.13536,0.4740617 -1.5972,0.4217703 -2.11796,-0.2398091 -0.574,-0.729226 -0.57028,-0.7830057 0.10987,-1.5907677 0.71294,-0.8467076 2.88884,-1.5519872 4.78815,-1.5519872 2.10937,0 3.58898,0.8521071 6.75069,3.8877077 1.6445,1.5789019 2.97318,2.6616149 3.6138,2.9448019 1.0837,0.479039 3.10021,0.624974 4.42485,0.320214 1.0193,-0.234509 1.60545,0.189287 1.60545,1.160778 0,0.861707 -0.37844,1.179548 -1.947,1.635228 -1.35859,0.394691 -2.8883,0.407276 -4.26928,0.03514 z"
       id="path1"
       sodipodi:nodetypes="csscsssssssscssscccsssssssscsssscssssssscccssscscssssccsssssssssssssssssssssssssssscssscsssssssscssssssssssssssssssssssscsssssssssssssssscsssssssssssssssssscsssssssssscsssssssssssssssssssscssssscscssssssssssssssssssssscssssssssssssssssssssssssssssssssssssssssssssssssscssssssssssssssssssssssscssssssssssscsssssssssscsssssssssscsssssssssssssssscsssssssssccssssssssssssssssssscssssscsssssssssssssssssssssssscssssssscsssssccsssssssscccssccssssssscccsscsscsssccssssssssssssssscscssssssssssssssssssssssssscssssssssssssscssssssssssssssssssssssssssssscsssssscsssssssscssscssssscsssssssssscssccsssssssccsscsscssssssssccssssssssssssscsscssssscccsssssssssssssscsssssscssssssssssssssssssssssssssscsssssssssssccscscsssscssssssssssssssssssssssssssssssssssssssssssssssssssscsssssssssssscsssssssssssssssssssssssssssssssssssssssssssssssssssssssssssssssssssssscssssssssssscsssssssccsssssssssscsssssssscsssssssssscssssssssscssssssscsssssscsssssssscssssssssssssssssscscsscssssssccsscssssssssssssssssssssss" /></g></svg>
