<?xml version="1.0" encoding="UTF-8" standalone="no"?>
<!-- Created with Inkscape (http://www.inkscape.org/) -->

<svg
   width="174.491mm"
   height="173.144mm"
   viewBox="0 0 174.491 173.144"
   version="1.1"
   id="svg1"
   inkscape:version="1.3.2 (091e20ef0f, 2023-11-25, custom)"
   sodipodi:docname="symbol.svg"
   xmlns:inkscape="http://www.inkscape.org/namespaces/inkscape"
   xmlns:sodipodi="http://sodipodi.sourceforge.net/DTD/sodipodi-0.dtd"
   xmlns="http://www.w3.org/2000/svg"
   xmlns:svg="http://www.w3.org/2000/svg">
  <sodipodi:namedview
     id="namedview1"
     pagecolor="#505050"
     bordercolor="#ffffff"
     borderopacity="1"
     inkscape:showpageshadow="0"
     inkscape:pageopacity="0"
     inkscape:pagecheckerboard="1"
     inkscape:deskcolor="#d1d1d1"
     inkscape:document-units="mm"
     inkscape:zoom="0.38553571"
     inkscape:cx="396.85039"
     inkscape:cy="561.55628"
     inkscape:current-layer="layer1" />
  <defs
     id="defs1" />
  <g
     inkscape:label="Layer 1"
     inkscape:groupmode="layer"
     id="layer1">
    <path
       style="fill:#000000;stroke-width:0.999995"
       d="m 58.752091,171.56376 c 0,-1.56303 0.009,-1.57896 0.86782,-1.57896 h 0.86783 v -1.86608 -1.86608 h -0.86783 -0.86782 v -1.72252 c 0,-1.64597 0.0321,-1.72253 0.72319,-1.72253 h 0.72318 v -8.75619 c 0,-8.3734 0.0253,-8.78129 0.57856,-9.33036 0.55996,-0.55574 0.96425,-0.57418 12.58541,-0.57418 h 12.00686 l -0.0742,-19.99607 -0.0743,-19.99608 -2.02493,-0.47846 c -2.4018,-0.56751 -4.2785,-1.36608 -6.04491,-2.57223 -0.71015,-0.48489 -1.39867,-0.88163 -1.53006,-0.88163 -0.13138,0 -4.33856,4.0757 -9.3493,9.05711 -10.28569,10.22549 -9.6472,9.1504 -6.36233,10.7129 1.35637,0.64517 1.975,0.75657 4.19449,0.75533 2.94006,-0.001 4.43796,-0.51187 6.32191,-2.15352 l 1.08559,-0.94593 1.1423,1.10699 1.14231,1.10701 -1.08549,1.10683 c -2.36106,2.4075 -7.0458,3.76311 -10.74021,3.10787 -2.13257,-0.37823 -4.55507,-1.37896 -6.01702,-2.48561 -0.50762,-0.38425 -1.03538,-0.69864 -1.17281,-0.69864 -0.33356,0 -2.3922,2.1046 -2.3922,2.44561 0,0.14752 0.91276,1.18017 2.02835,2.29477 l 2.02836,2.02656 -1.16377,1.12779 -1.16377,1.1278 -2.16804,-2.13731 -2.16805,-2.13729 -1.3647,1.35439 -1.3647,1.35438 4.72048,4.71602 c 4.13539,4.13149 4.69437,4.79916 4.50984,5.3867 -0.2722,0.86664 -2.33802,3.05508 -11.77312,12.4719 l -7.734481,7.71948 -1.230043,-1.22074 -1.230044,-1.22074 9.038008,-8.97308 9.038,-8.97308 -3.84399,-3.80709 -3.844,-3.80709 -2.13842,2.17311 -2.138418,2.17311 2.079478,2.07762 2.07948,2.07764 -1.1635,1.12753 -1.16351,1.12754 -1.956888,-1.9272 c -1.07629,-1.05997 -2.07069,-1.92722 -2.209778,-1.92722 -0.139089,0 -1.091435,0.85715 -2.116324,1.90477 l -1.863437,1.90478 2.049995,2.04816 2.049995,2.04817 -1.18864,1.17966 -1.18864,1.17965 -1.630518,-1.62264 c -2.712531,-2.69945 -2.308844,-2.69489 -4.880947,-0.055 -1.244246,1.27703 -2.383244,2.32185 -2.531104,2.32185 -0.147861,0 -0.764268,-0.48011 -1.369795,-1.06692 l -1.100959,-1.06693 2.464488,-2.45725 2.464486,-2.45724 -1.737319,-1.7062 c -0.955525,-0.93841 -1.737319,-1.84638 -1.737319,-2.01772 0,-0.37458 1.795937,-2.1467 2.175549,-2.1467 0.147245,0 1.05576,0.77513 2.01892,1.72251 l 1.751202,1.72252 2.009094,-2.00929 2.009094,-2.00931 -1.872227,-1.8757 -1.872228,-1.8757 1.287201,-1.18045 1.287199,-1.18047 1.670629,1.76396 c 0.918846,0.97019 1.775006,1.76397 1.902579,1.76397 0.127572,0 1.137576,-0.90572 2.244452,-2.01271 l 2.0125,-2.01272 -3.39422,-3.36858 -3.394224,-3.36857 -9.047647,8.97588 -9.047647,8.97586 -1.123345,-1.14172 -1.123343,-1.1417 5.517984,-5.68261 c 3.034892,-3.12544 7.394081,-7.52357 9.687085,-9.77362 5.496907,-5.39394 4.837543,-5.39919 10.184107,0.0811 l 4.07031,4.1722 1.28873,-1.3032 1.28874,-1.30319 -1.86374,-1.86625 -1.86374,-1.86624 1.22104,-1.21181 1.22105,-1.21181 1.88463,1.85376 1.88463,1.85376 1.34654,-1.33636 1.34654,-1.33637 -1.05134,-1.98556 c -1.31421,-2.48206 -1.93559,-4.80749 -1.93559,-7.24377 0,-3.13701 1.17545,-6.56827 2.99963,-8.75619 l 0.71807,-0.861261 1.17629,1.132671 c 1.09611,1.05546 1.14689,1.17287 0.74491,1.72253 -0.23727,0.32442 -0.7895,1.23581 -1.22718,2.0253 -0.73822,1.3316 -0.79579,1.67427 -0.79579,4.73695 0,3.04096 0.0644,3.43179 0.81652,4.95226 0.44908,0.90792 0.90546,1.65075 1.01418,1.65075 0.10872,0 4.28232,-4.0553 9.27469,-9.0118 l 9.077,-9.011811 -0.72973,-0.96449 c -1.4898,-1.96911 -2.52636,-4.54497 -3.24744,-8.06994 l -0.1615,-0.78949 H 41.667851 14.180757 l 0.03742,12.509121 c 0.03447,11.5265 -0.0022,12.55258 -0.467221,13.0625 -0.470318,0.51577 -0.954916,0.5534 -7.127545,0.5534 H 4.95e-4 l 0.08675,-1.65076 0.08675,-1.65075 5.423899,-0.0782 5.423897,-0.0782 v -4.77536 -4.77534 L 5.510896,101.19034 0,101.38669 l 0.087,-1.658831 0.08699,-1.65884 4.483756,-0.17733 c 2.466066,-0.0975 4.90682,-0.19442 5.423899,-0.21531 l 0.940141,-0.038 v -4.88049 -4.8805 H 5.511134 4.81e-4 l 0.08675,-1.62511 0.08675,-1.62511 4.90635,0.0462 c 2.698493,0.0254 5.139247,-0.0271 5.423899,-0.11675 0.467761,-0.14734 0.517547,-0.58923 0.517547,-4.59354 v -4.43048 H 5.525557 0.02934 v -1.57899 -1.57899 h 5.496217 5.496216 v -4.73695 -4.73695 H 5.525557 0.02934 v -1.53451 -1.5345 l 6.026907,-0.19724 c 6.100576,-0.19965 6.732235,-0.14782 7.641316,0.62704 0.46695,0.39801 0.506231,1.35249 0.506231,12.30115 v 11.86966 l 1.663329,0.0652 c 0.91483,0.0358 13.286655,0.0681 27.492948,0.0717 l 25.82962,0.007 0.15802,-0.71772 c 0.69011,-3.13431 2.11827,-6.59966 3.22973,-7.83677 0.43591,-0.48519 -0.23548,-1.20999 -11.23561,-12.12947 -6.43458,-6.387393 -11.78788,-11.613451 -11.89624,-11.613451 -0.10836,0 -0.56457,0.742841 -1.0138,1.650763 -0.73873,1.492995 -0.81678,1.938834 -0.81678,4.665185 0,3.298483 0.40459,4.489143 2.23163,6.567393 l 0.85203,0.96918 -1.08068,1.09836 c -1.30165,1.32293 -1.60639,1.23026 -3.11821,-0.94825 -3.25289,-4.68735 -3.30335,-10.275579 -0.1401,-15.516915 l 0.65402,-1.083483 -1.21608,-1.206888 -1.21607,-1.20688 -6.741707,6.668635 c -4.479821,4.431266 -6.944188,6.668631 -7.345225,6.668631 -0.928381,0 -3.000684,-1.869322 -12.24097,-11.042019 l -8.5336,-8.471179 1.230683,-1.221553 1.230683,-1.221553 9.110387,9.038113 9.110387,9.038102 5.785987,-5.73687 c 3.182293,-3.15527 5.785985,-5.875394 5.785985,-6.044706 0,-0.379369 -1.516079,-1.850703 -1.906986,-1.850703 -0.156376,0 -0.914126,0.634587 -1.683888,1.410194 l -1.39957,1.410194 -1.146062,-1.160373 -1.14606,-1.160375 1.53129,-1.53883 1.531289,-1.538831 -0.95607,-0.978959 -0.956072,-0.97896 -1.345372,0.61292 c -1.931057,0.879745 -5.493489,0.864311 -7.195139,-0.03117 -3.183226,-1.675157 -4.829497,-4.283128 -4.832855,-7.656064 -0.0026,-2.654474 0.8526,-4.605207 2.768534,-6.314777 1.693748,-1.511314 3.491471,-2.17113 5.915423,-2.17113 3.429544,0 6.934878,2.582553 7.928041,5.84098 0.548678,1.800132 0.419797,4.231917 -0.314004,5.92479 l -0.637297,1.470241 0.970202,0.993429 0.970203,0.993429 1.611453,-1.582585 c 0.8863,-0.870423 1.74486,-1.582587 1.90791,-1.582587 0.33882,0 2.1456,1.779989 2.1456,2.11378 0,0.121204 -0.7269,0.941774 -1.61532,1.823487 l -1.61533,1.603116 1.03876,1.030912 1.03876,1.03091 6.14382,-6.097374 6.14381,-6.097375 -9.10787,-9.042448 -9.10788,-9.04245 1.154112,-1.135272 1.154108,-1.135271 9.76721,9.53134 c 9.60827,9.37623 9.76715,9.549993 9.76302,10.677495 -0.004,1.111174 -0.21182,1.352342 -6.80713,7.902067 l -6.80293,6.755912 1.2344,1.189765 1.23439,1.189765 1.8746,-1.133653 c 4.34432,-2.62721 9.40109,-2.915314 13.78363,-0.785307 0.97518,0.473955 2.17925,1.277658 2.67572,1.786007 l 0.90266,0.924276 -1.09215,1.058386 -1.09215,1.058398 -1.43351,-1.01149 c -2.97818,-2.101404 -7.22585,-2.439885 -10.76925,-0.858161 -0.99207,0.442844 -1.93005,0.956185 -2.0844,1.140763 -0.19883,0.237759 3.12106,3.710809 11.38833,11.913694 l 11.66897,11.57812 1.34146,-0.91598 c 1.98535,-1.35563 4.77934,-2.57598 6.86371,-2.99791 l 1.84243,-0.37294 0.0747,-16.571691 0.0747,-16.571682 -2.75046,0.200371 -2.75046,0.200372 v -1.761862 -1.761862 h 2.74811 2.74811 v -1.865973 -1.866073 h -2.72134 -2.72134 l -0.099,-1.579375 -0.099,-1.579376 2.82041,3.91e-4 2.82044,3.92e-4 v -2.009617 -2.009616 h -2.89274 -2.89276 v -1.579389 -1.578984 h 2.89276 2.89274 v -2.009616 -2.009617 h -6.17457 c -5.90762,0 -6.1984,-0.0261 -6.72564,-0.603684 -0.50222,-0.55017 -0.55881,-1.186415 -0.6385,-7.177203 l -0.0875,-6.573515 h 1.75077 1.75077 v 5.598217 5.598217 h 5.06229 5.06231 V 5.626877 0.02866 h 1.76416 1.76414 l -0.10078,5.526444 -0.10078,5.526446 4.84535,0.07871 4.84535,0.07871 V 5.619485 0 l 1.663309,0.0861 1.66334,0.0861 0.0777,6.342165 c 0.0744,6.061363 0.051,6.375958 -0.52722,7.105429 l -0.60496,0.763264 h -5.903609 c -6.70662,0 -6.24141,-0.196507 -6.11706,2.583792 l 0.0578,1.291897 2.67578,0.08255 2.6758,0.08254 v 1.557438 1.557438 l -2.6758,0.08255 -2.67578,0.08254 v 1.866071 1.866073 l 2.67578,0.08255 2.6758,0.08254 v 1.557437 1.557438 l -2.6758,0.08255 -2.67578,0.08254 -0.0864,1.639798 -0.0864,1.639798 2.68989,0.08273 2.6899,0.08273 v 1.578984 1.578985 l -2.67813,0.08257 -2.67814,0.08257 0.0747,16.555622 0.0747,16.55562 1.87787,0.37718 c 2.0621,0.41418 5.10779,1.72488 6.5567,2.82168 0.51054,0.38645 1.03516,0.70265 1.16582,0.70265 0.13066,0 5.611959,-5.33492 12.180629,-11.85539 l 11.9431,-11.855393 -1.0508,-0.497303 c -0.57794,-0.273522 -1.98425,-0.641323 -3.12514,-0.817355 -2.41464,-0.372559 -5.42888,0.0966 -7.83647,1.219759 l -1.41464,0.659932 -0.96407,-1.106834 c -0.53023,-0.608761 -0.96406,-1.221282 -0.96406,-1.361168 0,-0.3729 3.34514,-1.855195 5.34003,-2.366267 3.65645,-0.936746 8.68922,-0.363667 11.41124,1.299388 l 0.9858,0.602292 1.58864,-1.576638 1.58864,-1.576637 -1.18644,-2.394161 c -0.69623,-1.404927 -1.32502,-3.200687 -1.52185,-4.346135 -0.36481,-2.123224 -0.16465,-5.108411 0.41351,-6.166853 l 0.35753,-0.654538 1.21461,1.112841 c 1.20326,1.102455 1.21461,1.131533 1.21461,3.114454 0,2.200514 0.53046,4.303908 1.46591,5.8125 l 0.60725,0.979341 3.37227,-3.346785 3.37228,-3.346786 -4.26422,-4.239056 c -3.60719,-3.585905 -4.26312,-4.371224 -4.25704,-5.096846 0.005,-0.718402 0.76327,-1.620307 4.66024,-5.550366 l 4.65306,-4.692578 1.1113,1.07695 c 0.83072,0.805051 1.0466,1.192494 0.85505,1.53461 -0.14094,0.251712 -1.89203,2.070627 -3.89134,4.042033 l -3.63509,3.584374 3.53966,3.521351 3.53965,3.521352 3.97664,-3.939027 3.97663,-3.939026 1.16702,1.130947 1.16702,1.130947 -3.97832,3.955814 -3.97832,3.955814 3.46297,3.445765 3.46296,3.445764 3.98148,-3.943813 3.98147,-3.943813 1.16072,1.151955 1.16074,1.151956 -4.86806,4.801086 c -2.79299,2.754567 -5.09721,4.801089 -5.40565,4.801089 -0.30478,0 -2.3684,-1.802504 -4.76578,-4.162776 -2.32551,-2.289528 -4.35509,-4.162778 -4.51018,-4.162778 -0.15508,0 -1.76004,1.471077 -3.56658,3.26906 l -3.28461,3.269059 1.26441,0.727588 c 1.90615,1.096873 4.40379,1.716479 6.35462,1.576434 1.60629,-0.11531 1.74311,-0.07086 2.92584,0.950408 1.10641,0.955384 1.19375,1.118866 0.80683,1.510019 -0.23866,0.241251 -1.3126,0.576925 -2.38653,0.745944 -3.2801,0.516205 -7.05558,-0.347175 -9.92635,-2.269991 l -1.36992,-0.917561 -1.52693,1.496563 -1.52693,1.496557 0.99906,1.465479 c 2.71162,3.977614 2.87608,10.279519 0.39459,15.121369 -0.94033,1.83477 -1.32053,1.95084 -2.51309,0.76728 l -1.04311,-1.03522 0.7448,-1.66993 c 1.00648,-2.25662 1.4806,-4.765341 1.27305,-6.736046 -0.18098,-1.718405 -1.24556,-4.454789 -1.96118,-5.040991 -0.35141,-0.287855 -2.45495,1.671389 -12.49969,11.642327 l -12.07717,11.98844 0.55268,0.70246 c 1.20809,1.53544 2.39453,4.01403 2.94624,6.15489 0.31926,1.23883 0.62512,2.29673 0.6797,2.3509 0.0546,0.0542 5.06318,0.0646 11.13022,0.0233 l 11.03098,-0.0752 -0.71919,-1.54043 c -0.39556,-0.84722 -1.11385,-2.03492 -1.59619,-2.63933 -1.1905,-1.49176 -4.06189,-3.34394 -6.10992,-3.94118 l -1.68614,-0.4917 -4e-4,-1.67357 -4.1e-4,-1.67357 0.94015,0.19727 c 1.77087,0.37158 4.08323,1.27729 5.61815,2.20051 2.95954,1.78011 5.72184,5.30705 6.49188,8.28895 l 0.36584,1.41659 h 2.2595 2.25952 v -2.58379 -2.58379 h 1.55369 1.5537 l 0.20366,2.58379 c 0.12998,1.64883 0.32666,2.59264 0.54354,2.60827 1.35012,0.0972 3.55071,-0.12555 3.70617,-0.3752 0.10362,-0.16644 0.27159,-0.81853 0.37318,-1.44908 0.44853,-2.78371 3.33379,-6.77019 6.03858,-8.34332 1.38148,-0.80348 3.52205,-1.50705 5.33656,-1.75402 l 1.22941,-0.16734 v 1.68894 1.68894 l -1.39622,0.18381 c -3.18431,0.41921 -6.3937,3.00483 -7.55573,6.08719 -1.04429,2.76997 -1.55554,2.57045 6.34825,2.47743 l 6.94282,-0.0817 v -5.55648 c 0,-6.93154 -0.0413,-6.84694 3.35183,-6.88422 1.25896,-0.0138 4.33926,0.007 6.84509,0.0453 l 4.55608,0.0704 v 1.57898 1.57898 h -5.64086 -5.64084 v 4.58721 4.58721 l 5.56854,0.078 5.56852,0.078 0.0868,1.65075 0.0868,1.65076 h -5.65528 -5.6553 v 4.88049 4.88049 h 5.64085 5.64086 v 1.72253 1.722531 h -6.66647 -6.66646 l -0.71003,-0.70467 c -0.70779,-0.702431 -0.71004,-0.723351 -0.71004,-6.603031 v -5.89834 h -6.97396 -6.97394 l 0.18685,0.78948 c 0.39711,1.67785 2.00724,4.45641 3.36094,5.79987 1.20857,1.19943 3.7429,2.69494 5.55477,3.27784 0.40132,0.12913 0.50622,0.49193 0.50622,1.75086 0,0.873391 -0.11646,1.587991 -0.25881,1.587991 -0.14234,0 -1.10561,-0.25957 -2.14062,-0.57683 -4.80959,-1.474301 -9.0306,-5.973941 -10.13275,-10.801631 l -0.38445,-1.68405 -2.0753,-0.0843 -2.07528,-0.0843 v 2.7399 2.73991 h -1.73564 -1.73564 v -2.72733 -2.72734 h -2.11169 -2.11168 l -0.36923,1.77412 c -0.73005,3.50787 -2.91809,6.68427 -6.00522,8.71791 -1.85297,1.22063 -5.0008,2.411881 -6.39707,2.420881 l -0.94015,0.007 v -1.536371 -1.53638 l 1.90575,-0.51196 c 2.169,-0.58267 4.79872,-2.2169 5.99166,-3.72346 1.07654,-1.35958 2.22087,-3.83988 2.22439,-4.82129 l 0.003,-0.78949 h -11.08706 -11.08708 l -0.35702,1.92302 c -0.40798,2.19739 -1.97879,5.77237 -3.20273,7.28901 l -0.83123,1.03002 11.68859,11.597581 11.68859,11.59758 2.17401,-2.14318 2.17402,-2.14318 1.17111,1.16226 1.17111,1.16225 -2.18846,2.12111 -2.18846,2.1211 1.51372,1.52119 1.51373,1.52117 2.04009,-2.01113 c 1.12204,-1.10613 2.1742,-2.01115 2.33812,-2.01115 0.16393,0 0.73447,0.44686 1.26787,0.99304 1.12211,1.14898 1.18039,1.00236 -1.49213,3.7538 l -1.68272,1.73242 1.30635,1.2724 1.30636,1.2724 2.16387,-2.13318 2.16386,-2.13319 1.16398,1.128 1.16396,1.128 -2.17543,2.17174 -2.17546,2.17173 1.44817,1.41561 1.44817,1.41561 4.57695,-4.51039 c 3.64404,-3.59109 4.7364,-4.51041 5.35932,-4.51041 0.84079,0 2.22515,1.16365 7.56574,6.35955 l 2.89276,2.81436 -1.22961,1.22254 -1.22962,1.22254 -3.97988,-3.94223 -3.97988,-3.94226 -3.82916,3.80021 -3.82915,3.80021 3.97228,3.94981 3.97227,3.94979 -1.22554,1.21629 -1.22554,1.21627 -3.98193,-3.94426 -3.98192,-3.94427 -2.88816,2.89169 -2.88816,2.89169 4.04985,3.83896 4.04985,3.83897 -1.2299,1.23314 -1.22991,1.23313 -4.77255,-4.72995 c -3.65348,-3.62087 -4.77254,-4.90001 -4.77254,-5.45524 0,-0.54605 0.89362,-1.61002 3.61593,-4.30528 1.98876,-1.96898 3.61593,-3.69012 3.61593,-3.82474 0,-0.13463 -0.61831,-0.80551 -1.37405,-1.49084 l -1.37405,-1.24605 -1.60207,1.56091 -1.60205,1.56089 -1.13429,-1.15284 -1.13429,-1.15285 1.56018,-1.56787 1.56018,-1.56787 -0.55948,-0.63898 c -0.30771,-0.35145 -0.88491,-0.92927 -1.28267,-1.28404 l -0.72319,-0.64507 -1.60205,1.56451 -1.60205,1.56451 -1.1332,-1.15173 -1.1332,-1.15172 1.28887,-1.35519 c 0.70889,-0.74533 1.41255,-1.44683 1.56367,-1.55884 0.15213,-0.11276 -0.35559,-0.88516 -1.13733,-1.73026 -0.77668,-0.83962 -1.45696,-1.58378 -1.51177,-1.6537 -0.0548,-0.0699 -0.84971,0.60949 -1.76645,1.50982 l -1.66681,1.63696 -1.1343,-1.15286 -1.13428,-1.15284 1.56018,-1.56786 1.56018,-1.56788 -0.55948,-0.616 c -0.30772,-0.33879 -5.53674,-5.5842 -11.62003,-11.65646 l -11.060549,-11.04047 -1.66753,1.01647 c -1.91197,1.16547 -3.53655,1.78801 -6.00665,2.30178 l -1.73565,0.361 -0.0742,19.99923 -0.0743,19.99923 h 12.599219 12.59922 l 0.70938,0.75965 0.70936,0.75964 v 8.42719 c 0,8.23577 0.0131,8.42717 0.57856,8.42717 0.51426,0 0.57855,0.1914 0.57855,1.72253 0,1.53113 -0.0643,1.72253 -0.57855,1.72253 -0.52345,0 -0.57856,0.19139 -0.57856,2.00961 0,1.9522 0.0206,2.00962 0.72319,2.00962 0.68374,0 0.72319,0.0862 0.72319,1.57898 v 1.57899 h -3.47129 c -3.46116,0 -3.4713,-0.002 -3.4713,-0.68183 0,-0.37502 -0.0814,-1.08556 -0.18079,-1.57899 -0.17912,-0.88882 -0.16972,-0.89715 1.01246,-0.89715 h 1.19324 v -2.00962 -2.00961 h -1.15709 -1.1571 v -1.72253 -1.72253 h 1.1571 1.15709 v -7.61655 -7.61654 l -1.73564,0.0516 -1.73564,0.0517 v 2.11018 2.1102 h -1.591 -1.59101 l -0.0363,-1.57899 c -0.0199,-0.86844 -0.0687,-1.70818 -0.10842,-1.86607 -0.0398,-0.1579 -0.0885,-0.39864 -0.10842,-0.53497 -0.0199,-0.13635 -0.32906,-0.21743 -0.68703,-0.1802 -0.35798,0.0372 -4.00284,0.0842 -8.099689,0.10439 l -7.44882,0.0367 v 2.00962 2.00962 h 6.36404 c 5.978349,0 6.399099,0.0348 6.942589,0.57418 0.54501,0.54089 0.57855,0.95696 0.57855,7.1772 v 6.60303 h -1.75239 -1.752409 l 0.0891,-5.52645 0.0891,-5.52645 -5.27927,-0.0783 -5.27925,-0.0783 v 7.47077 7.47076 h 1.15709 1.1571 v 1.72253 1.72252 h -3.90521 -3.90521 v -1.72252 -1.72253 h 1.16199 1.16197 l -0.0772,-7.39252 -0.0772,-7.39251 h -4.19449 -4.19448 l -0.0786,5.52644 -0.0786,5.52645 h -1.58475 -1.58477 v -6.70207 c 0,-6.12827 0.0453,-6.74276 0.52901,-7.17721 0.45248,-0.4064 1.31027,-0.47512 5.93013,-0.47512 h 5.40111 v -2.00962 -2.00962 h -7.66577 -7.66578 v 2.00962 2.00962 h -1.73564 -1.73565 v -2.00962 -2.00962 h -1.44726 -1.44638 v 7.58964 7.58964 l 0.94015,0.09 c 0.92947,0.089 0.94112,0.10876 1.02689,1.74073 l 0.0868,1.65075 h -1.02689 -1.0269 v 1.84789 1.84788 l 0.94015,0.09 c 0.9168,0.0877 0.94231,0.12737 1.02757,1.59718 l 0.0875,1.50721 h -3.48641 -3.48641 z m 32.77502,-71.657541 c 5.91339,-1.97701 9.748339,-7.33879 9.748339,-13.62947 0,-6.2446 -3.621759,-11.25548 -9.614079,-13.30157 -5.10996,-1.7448 -10.92232,-0.35896 -14.85092,3.54088 -2.53235,2.5138 -4.17318,6.3783 -4.17318,9.82875 0,9.76856 9.60635,16.665161 18.88984,13.56141 z M 32.882534,36.168811 c 0.115738,-0.185852 -1.21409,-1.720513 -3.171817,-3.660371 -3.670024,-3.636526 -3.922769,-3.71406 -3.931495,-1.206051 -0.01048,3.027411 2.171419,5.178645 5.257758,5.183738 0.905442,0.0015 1.73594,-0.141298 1.845554,-0.317316 z m 3.180944,-3.871318 c 0.482824,-3.195377 -1.837195,-5.923348 -5.081744,-5.975316 -2.791996,-0.04471 -2.752397,0.10457 1.024678,3.862885 1.897519,1.888095 3.541723,3.4329 3.653787,3.4329 0.112065,0 0.29354,-0.594211 0.403279,-1.320469 z"
       id="path1" />
  </g>
</svg>
