<?xml version="1.0" encoding="UTF-8" standalone="no"?>
<!-- Created with Inkscape (http://www.inkscape.org/) -->

<svg
   width="174.491mm"
   height="173.144mm"
   viewBox="0 0 174.491 173.144"
   version="1.1"
   id="svg1"
   inkscape:version="1.3.2 (091e20ef0f, 2023-11-25, custom)"
   sodipodi:docname="symbol2.svg"
   xml:space="preserve"
   xmlns:inkscape="http://www.inkscape.org/namespaces/inkscape"
   xmlns:sodipodi="http://sodipodi.sourceforge.net/DTD/sodipodi-0.dtd"
   xmlns="http://www.w3.org/2000/svg"
   xmlns:svg="http://www.w3.org/2000/svg"><sodipodi:namedview
     id="namedview1"
     pagecolor="#505050"
     bordercolor="#ffffff"
     borderopacity="1"
     inkscape:showpageshadow="0"
     inkscape:pageopacity="0"
     inkscape:pagecheckerboard="1"
     inkscape:deskcolor="#d1d1d1"
     inkscape:document-units="mm"
     inkscape:zoom="0.51717005"
     inkscape:cx="444.728"
     inkscape:cy="378.9856"
     inkscape:current-layer="layer1"
     showgrid="false" /><defs
     id="defs1" /><g
     inkscape:label="Layer 1"
     inkscape:groupmode="layer"
     id="layer1"><path
       id="path2"
       style="fill:#000000;stroke-width:1"
       d="M 86.089836 57.950468 L 76.999951 58.082243 L 88.808016 58.673421 C 100.83003 59.275391 107.76009 60.763509 118.9948 65.155713 C 129.65926 69.324988 146.22852 79.910531 155.17812 88.272131 L 160.06413 92.837227 L 155.58534 96.952738 C 140.95224 110.39848 119.8846 121.56404 101.83771 125.43834 C 98.030639 126.25564 95.865009 126.95 97.025085 126.9814 C 99.631481 127.05222 110.47918 124.31873 116.49625 122.07472 C 129.30414 117.29811 149.83795 104.22521 158.28801 95.468075 L 161.39738 92.245532 L 153.8087 85.876412 C 144.26766 77.86898 134.91229 71.748589 125.24869 67.192798 C 110.36733 60.177177 100.07402 57.747944 86.089836 57.950468 z M 74.958215 58.698226 C 72.488754 58.619925 60.711426 61.847195 54.810608 64.219336 C 42.923314 68.997995 31.25981 76.204688 19.665466 85.935323 L 12.006502 92.363354 L 17.763257 97.75579 C 32.384217 111.45173 55.31942 123.33554 73.480786 126.62586 C 76.760096 127.21998 82.924729 127.68347 87.179692 127.65887 L 94.915653 127.61133 L 84.73643 126.96796 C 73.750118 126.27332 66.007835 124.57003 55.801762 120.60246 C 43.715977 115.90413 28.164223 106.22006 17.959627 97.038521 L 13.480314 93.008276 L 15.516366 90.785673 C 16.636091 89.563083 19.969046 86.622017 22.923149 84.250155 C 38.177255 72.002504 55.293206 63.471563 71.792 59.892468 C 74.656568 59.271079 76.081081 58.733926 74.958215 58.698226 z M 87.675269 62.841125 C 78.532701 62.656931 69.496305 64.415045 59.823739 68.055794 C 48.214528 72.425499 32.398417 81.837741 23.660055 89.576444 L 19.995162 92.821724 L 22.031213 94.512061 C 38.174947 107.91631 53.227923 115.9952 70.485103 120.51719 C 82.236603 123.5965 89.415341 123.67104 101.27392 120.83552 C 112.83733 118.07061 121.66689 114.56023 131.26021 108.91428 C 139.88586 103.83781 152.73486 94.062586 152.73486 92.576778 C 152.73486 90.633384 134.76544 78.130661 125.04663 73.311804 C 111.36052 66.525877 99.429998 63.077949 87.675269 62.841125 z M 83.514799 63.519637 L 86.365271 63.519637 L 86.365271 72.88444 C 86.365271 78.463654 86.042253 82.24976 85.566353 82.24976 C 85.126989 82.24976 84.538299 81.241803 84.257906 80.010103 C 83.977542 78.778405 83.054242 74.961236 82.206352 71.527417 C 81.358432 68.093567 80.664844 64.887009 80.664844 64.401754 C 80.664844 63.916527 81.947183 63.519637 83.514799 63.519637 z M 87.179692 63.519637 L 89.710803 63.519637 C 91.924988 63.519637 92.186361 63.749409 91.796981 65.352083 C 91.552106 66.359837 90.708492 70.573868 89.92216 74.716886 C 89.135828 78.859875 88.197016 82.24976 87.835982 82.24976 C 87.47498 82.24976 87.179692 78.035215 87.179692 72.88444 L 87.179692 63.519637 z M 93.099744 63.791972 C 94.081196 63.751953 98.032924 64.452466 98.451355 64.797078 C 98.604445 64.923179 96.99565 68.911662 94.875863 73.66062 C 89.215486 86.341756 88.389358 85.979224 91.251278 72.07002 C 92.14706 67.716412 92.880119 64.021035 92.880119 63.857601 C 92.880119 63.81845 92.959536 63.797689 93.099744 63.791972 z M 79.648368 63.831246 L 81.425004 71.615267 C 82.402194 75.896515 83.403653 80.22398 83.650191 81.231734 C 83.915041 82.313818 83.722834 83.064181 83.180452 83.064181 C 82.130286 83.064181 73.966325 66.104241 74.556689 65.148995 C 74.769924 64.803997 76.00243 64.366348 77.296057 64.176444 L 79.648368 63.831246 z M 99.909664 65.481791 C 101.26472 65.393661 104.37563 67.798182 103.95076 68.905355 C 103.72429 69.495535 101.23245 73.090329 98.413114 76.894014 C 93.487177 83.539924 92.065698 84.905452 92.065698 82.990283 C 92.065698 81.968001 98.574803 66.715952 99.451811 65.683329 C 99.55829 65.557952 99.716084 65.494381 99.909664 65.481791 z M 72.05245 65.962382 C 72.863529 65.962382 81.478748 82.026324 81.478748 83.53857 C 81.478748 85.002833 79.16816 82.812491 74.104521 76.548299 C 70.845709 72.516821 68.007323 69.390493 67.797412 69.600403 C 67.587379 69.810437 69.960958 73.017112 73.071509 76.726583 C 76.18206 80.436055 79.001366 83.929035 79.336759 84.4889 C 80.790589 86.915855 77.309892 85.029617 70.242224 79.559485 L 62.670593 73.698861 L 66.838298 69.83088 C 69.130566 67.703368 71.476981 65.962382 72.05245 65.962382 z M 105.78321 69.220064 C 106.14459 69.220064 107.23643 70.067962 108.20993 71.104187 L 109.97985 72.98831 L 102.60149 79.043754 C 91.550416 88.113941 91.138995 87.828045 99.409953 76.824251 C 102.55363 72.641865 105.42181 69.220064 105.78321 69.220064 z M 110.13126 74.22441 C 111.02775 73.88723 113.17483 76.495107 113.21273 77.966817 C 113.22695 78.522588 109.58065 80.812881 105.10986 83.056429 C 97.101167 87.07538 95.267674 87.729074 95.379708 86.524951 C 95.439942 85.87737 108.82621 74.715207 110.13126 74.22441 z M 62.542952 74.590279 L 68.815438 79.438045 C 72.265476 82.104276 75.843298 84.874529 76.765857 85.594259 C 77.687649 86.313986 78.094891 87.118072 77.669161 87.38123 C 76.771471 87.936045 60.070394 80.322642 59.691447 79.185864 C 59.551896 78.767152 60.136762 77.56192 60.990592 76.507475 L 62.542952 74.590279 z M 130.54759 80.138261 C 130.6124 80.133065 130.67618 80.145267 130.73931 80.173918 C 132.63296 81.033447 133.75561 96.687209 132.03277 101.21863 C 130.76145 104.56268 130.11182 103.85502 130.87935 99.961857 C 131.80095 95.287352 131.60526 86.343296 130.51296 83.209908 C 130.0036 81.748601 129.93414 80.464299 130.3507 80.206991 C 130.41694 80.16605 130.48278 80.143457 130.54759 80.138261 z M 114.03335 80.281921 C 115.38675 80.294264 115.65373 81.389313 115.66943 83.574227 C 115.68038 85.096261 114.64905 85.564557 107.15573 87.442208 L 107.15573 87.442725 C 93.026859 90.983068 92.699629 89.967638 105.87933 83.484827 C 110.24008 81.339803 112.67995 80.269579 114.03335 80.281921 z M 43.81593 80.649858 C 44.195516 80.682498 44.165222 82.526136 43.413371 85.710531 C 42.437042 89.845485 42.382709 91.931709 43.123983 96.831299 C 43.625893 100.14828 43.886298 103.01274 43.702242 103.1968 C 41.992581 104.90643 40.885507 89.447668 42.333333 84.081689 C 42.977464 81.694445 43.520697 80.624471 43.81593 80.649858 z M 58.945756 81.13665 C 61.488712 81.343819 76.592741 88.415289 76.592741 89.525802 C 76.592741 90.553624 76.61477 90.554706 70.892314 89.186287 C 68.428884 88.597216 64.274804 87.679187 61.660836 87.146102 C 57.077958 86.211447 56.927187 86.099605 57.443005 84.009859 C 57.737219 82.817894 58.263683 81.548965 58.61296 81.190393 C 58.66264 81.139389 58.776225 81.122838 58.945756 81.13665 z M 115.20485 86.786434 C 117.06162 86.876552 117.28311 87.933942 117.29827 90.189844 C 117.31052 91.994426 117.14811 92.021773 107.13093 92.021773 C 101.53226 92.021773 96.951705 91.730918 96.951705 91.375301 C 96.951705 91.019684 101.20715 89.690597 106.40849 88.421993 C 110.21249 87.494213 112.69111 86.931007 114.30465 86.806588 C 114.64081 86.780667 114.9396 86.77356 115.20485 86.786434 z M 57.056982 87.135767 C 57.740362 87.135767 67.50955 89.169563 74.760811 90.82133 C 75.768565 91.050909 76.592741 91.597912 76.592741 92.037276 C 76.592741 92.5169 72.525078 92.836194 66.413517 92.836194 L 56.234294 92.836194 L 56.234294 89.986239 C 56.234294 88.41862 56.604353 87.135767 57.056982 87.135767 z M 107.06323 92.836194 C 117.15089 92.836194 117.31057 92.864919 117.29827 94.66864 C 117.2766 97.852905 116.1955 98.693997 112.74712 98.209509 L 109.57419 97.763542 L 112.83136 98.665295 C 114.62291 99.161201 116.18237 99.641934 116.29626 99.733964 C 116.41026 99.82593 116.09958 101.06012 115.60586 102.47643 C 115.11214 103.89275 114.4691 105.03576 114.17701 105.01426 C 113.88489 104.9937 111.26388 103.8583 108.35256 102.49142 C 105.44126 101.12456 101.4786 99.31217 99.546379 98.463757 C 94.493938 96.245296 95.98277 95.275084 102.38135 96.616325 C 105.38059 97.244885 108.22359 97.629563 108.69931 97.471053 C 109.17499 97.312481 106.84772 96.660548 103.52753 96.022046 C 100.20737 95.383544 97.338838 94.405321 97.153243 93.848535 C 96.896179 93.077469 99.257455 92.836194 107.06323 92.836194 z M 66.413517 93.650614 C 72.012183 93.650614 76.592741 93.971507 76.592741 94.363749 C 76.592741 94.755993 72.225003 96.171229 66.886357 97.508777 L 57.179456 99.94067 L 56.717985 98.220878 C 55.481884 93.615623 55.407292 93.650614 66.413517 93.650614 z M 76.773092 96.612191 C 77.267242 96.917575 73.85583 99.10588 69.192159 101.47494 C 64.528519 103.84404 60.283943 105.80253 59.75966 105.82403 C 58.902752 105.86155 57.306593 101.18631 57.988708 100.63675 C 59.007481 99.815981 76.049177 96.164761 76.773092 96.612191 z M 95.477893 98.110807 C 95.856471 97.7322 112.89027 105.24573 113.86643 106.22194 C 114.04073 106.39624 113.56208 107.48698 112.80293 108.64556 C 112.0438 109.80416 111.15801 110.7519 110.83458 110.7519 C 110.32064 110.7519 97.822803 101.23262 95.784334 99.288513 C 95.366361 98.889838 95.228585 98.360114 95.477893 98.110807 z M 77.392175 98.536621 C 79.151053 98.536621 77.887801 99.9541 71.222009 105.45868 C 67.425372 108.59395 64.000066 111.26967 63.610071 111.40509 C 62.888928 111.65542 60.30588 108.4624 60.30588 107.32058 C 60.30588 106.63372 76.056076 98.536621 77.392175 98.536621 z M 94.407157 100.33496 C 95.243906 100.05604 108.60964 110.00566 109.64189 111.67587 C 109.91641 112.12003 109.4984 113.19318 108.71326 114.06074 C 107.9281 114.92829 106.88448 115.62488 106.39402 115.60638 C 105.07041 115.5591 93.38746 100.67488 94.407157 100.33496 z M 79.262345 100.3515 C 80.007761 100.45554 78.322089 103.2766 74.249215 108.69517 C 71.042358 112.96162 68.115786 116.45232 67.745736 116.45232 C 66.845707 116.45232 64.365805 113.66865 64.423975 112.72387 C 64.464357 112.06884 68.166234 108.81521 76.734851 101.90489 C 78.08235 100.81817 78.923521 100.3042 79.262345 100.3515 z M 92.311161 101.7111 C 92.366075 101.70249 92.430146 101.70885 92.503914 101.73022 C 93.389131 101.98676 95.638465 104.41322 99.467314 109.21452 L 105.38478 116.63422 L 103.40764 118.15403 C 102.32029 118.98985 101.13644 119.68292 100.77679 119.69192 C 100.22046 119.70731 92.065698 103.32232 92.065698 102.18911 C 92.065698 101.89729 92.146419 101.73695 92.311161 101.7111 z M 81.509237 101.7943 C 81.948664 101.7943 81.961109 102.54439 81.540243 103.62623 L 81.539209 103.62623 C 81.14715 104.63398 79.23246 108.82836 77.284172 112.94659 L 73.741752 120.43399 L 71.502096 119.23148 C 70.270365 118.57011 69.262956 117.7206 69.262956 117.34374 C 69.262956 116.28068 80.671995 101.7943 81.509237 101.7943 z M 90.443058 102.56066 C 90.928544 102.74988 91.81535 104.51772 95.294958 111.47795 C 98.596179 118.08113 99.287261 120.09095 98.442053 120.62675 C 96.314018 121.97579 93.74304 121.41481 93.304382 119.50588 C 90.288075 106.37973 89.647591 103.12617 90.01001 102.76375 C 90.163865 102.6099 90.28123 102.49759 90.443058 102.56066 z M 83.561825 103.27122 C 83.635888 103.22152 83.68649 103.22573 83.710136 103.29085 C 84.075233 104.29636 83.427728 108.40089 81.344906 118.28477 C 80.896584 120.41225 80.285194 122.11622 79.986332 122.07162 C 77.126782 121.64435 75.404075 120.63484 75.59952 119.50123 C 76.043251 116.9287 82.45086 104.01664 83.561825 103.27122 z M 85.683142 103.42263 C 86.058303 103.42263 86.365271 107.63716 86.365271 112.78795 L 86.365271 122.15275 L 83.826925 122.15275 C 81.591041 122.15275 81.347993 121.93442 81.784155 120.3203 C 82.056455 119.31256 82.891896 115.09853 83.640373 110.9555 C 84.388878 106.81249 85.308011 103.42263 85.683142 103.42263 z M 87.978092 103.42263 C 88.417458 103.42263 88.967553 104.2473 89.20024 105.25507 C 89.432927 106.26283 90.353653 110.20197 91.24611 114.00906 C 92.138567 117.81614 92.871334 121.20602 92.874434 121.54194 C 92.877573 121.87784 91.597264 122.15275 90.029647 122.15275 L 87.179692 122.15275 L 87.179692 112.78795 C 87.179692 107.20876 87.502194 103.42263 87.978092 103.42263 z " /></g></svg>
